<svg width="100%" height="100%" viewBox="0 0 100 100" version="1.1" xmlns="http://www.w3.org/2000/svg" xmlns:xlink="http://www.w3.org/1999/xlink" xml:space="preserve" style="fill-rule:evenodd;clip-rule:evenodd;stroke-linejoin:round;stroke-miterlimit:1.41421;"><path id="polygon3282" d="M76.75,65.205l-56.56,33.585l73.235,-4.97l5.64,-73.845l-22.315,45.23l0,0Z" style="fill:url(#_Linear1);"/><path id="polygon3293" d="M93.545,93.77l-6.295,-43.445l-17.146,22.64l23.441,20.805Z" style="fill:url(#_Linear2);"/><path id="polygon3304" d="M93.63,93.77l-46.115,-3.62l-27.08,8.545l73.195,-4.925Z" style="fill:url(#_Linear3);"/><path id="polygon3319" d="M20.5,98.705l11.52,-37.74l-25.35,5.42l13.83,32.32Z" style="fill:url(#_Linear4);"/><path id="polygon3334" d="M70.1,73.09l-10.6,-41.52l-30.335,28.435l40.935,13.085Z" style="fill:url(#_Linear5);"/><path id="polygon3349" d="M96.66,32.155l-28.675,-23.42l-7.985,25.815l36.66,-2.395l0,0Z" style="fill:url(#_Linear6);"/><path id="polygon3362" d="M83.25,0.385l-16.865,9.32l-10.64,-9.445l27.505,0.125Z" style="fill:url(#_Linear7);"/><path id="polygon3375" d="M0,79.045l7.065,-12.885l-5.715,-15.35l-1.35,28.235l0,0Z" style="fill:url(#_Linear8);"/><path id="path3377" d="M0.97,50.325l5.75,16.31l24.985,-5.606l28.525,-26.51l8.05,-25.569l-12.676,-8.95l-21.55,8.065c-6.789,6.315 -19.964,18.81 -20.439,19.045c-0.47,0.24 -8.7,15.795 -12.645,23.215l0,0Z" style="fill:#fff;"/><path id="path3400" d="M21.16,21.025c14.715,-14.59 33.685,-23.21 40.965,-15.865c7.275,7.345 -0.44,25.195 -15.155,39.78c-14.715,14.585 -33.45,23.68 -40.725,16.335c-7.28,-7.34 0.2,-25.665 14.915,-40.25l0,0Z" style="fill:url(#_Linear9);"/><path id="path3413" d="M20.5,98.69l11.43,-37.86l37.96,12.195c-13.725,12.87 -28.99,23.75 -49.39,25.665Z" style="fill:url(#_Linear10);"/><path id="path3424" d="M60.28,34.445l9.745,38.6c11.465,-12.055 21.755,-25.015 26.795,-41.045l-36.54,2.445l0,0Z" style="fill:url(#_Linear11);"/><path id="path3435" d="M96.72,32.195c3.9,-11.77 4.8,-28.655 -13.591,-31.79l-15.09,8.335l28.681,23.455Z" style="fill:url(#_Linear12);"/><path id="path3437" d="M0,78.875c0.54,19.425 14.555,19.715 20.525,19.885l-13.79,-32.205l-6.735,12.32l0,0Z" style="fill:#9e1209;"/><path id="path3448" d="M60.335,34.505c8.809,5.415 26.565,16.29 26.925,16.49c0.559,0.315 7.655,-11.965 9.265,-18.905l-36.191,2.415l0.001,0Z" style="fill:url(#_Radial13);"/><path id="path3459" d="M31.915,60.83l15.28,29.48c9.035,-4.9 16.11,-10.87 22.59,-17.265l-37.87,-12.215Z" style="fill:url(#_Radial14);"/><path id="path3472" d="M6.675,66.595l-2.165,25.78c4.085,5.58 9.705,6.065 15.6,5.63c-4.265,-10.615 -12.785,-31.84 -13.435,-31.41l0,0Z" style="fill:url(#_Linear15);"/><path id="path3485" d="M67.95,8.805l30.355,4.26c-1.62,-6.865 -6.595,-11.295 -15.075,-12.68l-15.28,8.42Z" style="fill:url(#_Linear16);"/><defs><linearGradient id="_Linear1" x1="0" y1="0" x2="1" y2="0" gradientUnits="userSpaceOnUse" gradientTransform="matrix(-20.8987,-36.8977,36.8977,-20.8987,87.0369,107.774)"><stop offset="0%" style="stop-color:#fb7655;stop-opacity:1"/><stop offset="0%" style="stop-color:#fb7655;stop-opacity:1"/><stop offset="41%" style="stop-color:#e42b1e;stop-opacity:1"/><stop offset="99%" style="stop-color:#900;stop-opacity:1"/><stop offset="100%" style="stop-color:#900;stop-opacity:1"/></linearGradient><linearGradient id="_Linear2" x1="0" y1="0" x2="1" y2="0" gradientUnits="userSpaceOnUse" gradientTransform="matrix(-26.9337,-18.0741,18.0741,-26.9337,97.4475,76.7788)"><stop offset="0%" style="stop-color:#871101;stop-opacity:1"/><stop offset="0%" style="stop-color:#871101;stop-opacity:1"/><stop offset="99%" style="stop-color:#911209;stop-opacity:1"/><stop offset="100%" style="stop-color:#911209;stop-opacity:1"/></linearGradient><linearGradient id="_Linear3" x1="0" y1="0" x2="1" y2="0" gradientUnits="userSpaceOnUse" gradientTransform="matrix(-26.9328,-18.0736,18.0736,-26.9328,75.8977,108.893)"><stop offset="0%" style="stop-color:#871101;stop-opacity:1"/><stop offset="0%" style="stop-color:#871101;stop-opacity:1"/><stop offset="99%" style="stop-color:#911209;stop-opacity:1"/><stop offset="100%" style="stop-color:#911209;stop-opacity:1"/></linearGradient><linearGradient id="_Linear4" x1="0" y1="0" x2="1" y2="0" gradientUnits="userSpaceOnUse" gradientTransform="matrix(4.1753,27.1354,-27.1354,4.1753,19.3482,63.6953)"><stop offset="0%" style="stop-color:#fff;stop-opacity:1"/><stop offset="0%" style="stop-color:#fff;stop-opacity:1"/><stop offset="23%" style="stop-color:#e57252;stop-opacity:1"/><stop offset="46%" style="stop-color:#de3b20;stop-opacity:1"/><stop offset="99%" style="stop-color:#a60003;stop-opacity:1"/><stop offset="100%" style="stop-color:#a60003;stop-opacity:1"/></linearGradient><linearGradient id="_Linear5" x1="0" y1="0" x2="1" y2="0" gradientUnits="userSpaceOnUse" gradientTransform="matrix(1.5384,27.6934,-27.6934,1.5384,48.0664,38.3577)"><stop offset="0%" style="stop-color:#fff;stop-opacity:1"/><stop offset="0%" style="stop-color:#fff;stop-opacity:1"/><stop offset="23%" style="stop-color:#e4714e;stop-opacity:1"/><stop offset="56%" style="stop-color:#be1a0d;stop-opacity:1"/><stop offset="99%" style="stop-color:#a80d00;stop-opacity:1"/><stop offset="100%" style="stop-color:#a80d00;stop-opacity:1"/></linearGradient><linearGradient id="_Linear6" x1="0" y1="0" x2="1" y2="0" gradientUnits="userSpaceOnUse" gradientTransform="matrix(4.60555,19.8476,-19.8476,4.60555,73.5515,12.7605)"><stop offset="0%" style="stop-color:#fff;stop-opacity:1"/><stop offset="0%" style="stop-color:#fff;stop-opacity:1"/><stop offset="18%" style="stop-color:#e46342;stop-opacity:1"/><stop offset="40%" style="stop-color:#c82410;stop-opacity:1"/><stop offset="99%" style="stop-color:#a80d00;stop-opacity:1"/><stop offset="100%" style="stop-color:#a80d00;stop-opacity:1"/></linearGradient><linearGradient id="_Linear7" x1="0" y1="0" x2="1" y2="0" gradientUnits="userSpaceOnUse" gradientTransform="matrix(19.8462,-9.92315,9.92315,19.8462,59.4881,5.77075)"><stop offset="0%" style="stop-color:#fff;stop-opacity:1"/><stop offset="0%" style="stop-color:#fff;stop-opacity:1"/><stop offset="54%" style="stop-color:#c81f11;stop-opacity:1"/><stop offset="99%" style="stop-color:#bf0905;stop-opacity:1"/><stop offset="100%" style="stop-color:#bf0905;stop-opacity:1"/></linearGradient><linearGradient id="_Linear8" x1="0" y1="0" x2="1" y2="0" gradientUnits="userSpaceOnUse" gradientTransform="matrix(1.63345,16.354,-16.354,1.63345,1.95165,56.7773)"><stop offset="0%" style="stop-color:#fff;stop-opacity:1"/><stop offset="0%" style="stop-color:#fff;stop-opacity:1"/><stop offset="31%" style="stop-color:#de4024;stop-opacity:1"/><stop offset="99%" style="stop-color:#bf190b;stop-opacity:1"/><stop offset="100%" style="stop-color:#bf190b;stop-opacity:1"/></linearGradient><linearGradient id="_Linear9" x1="0" y1="0" x2="1" y2="0" gradientUnits="userSpaceOnUse" gradientTransform="matrix(76.7855,-78.9569,78.9569,76.7855,-9.27785,77.5523)"><stop offset="0%" style="stop-color:#bd0012;stop-opacity:1"/><stop offset="0%" style="stop-color:#bd0012;stop-opacity:1"/><stop offset="7%" style="stop-color:#fff;stop-opacity:1"/><stop offset="17%" style="stop-color:#fff;stop-opacity:1"/><stop offset="27%" style="stop-color:#c82f1c;stop-opacity:1"/><stop offset="33%" style="stop-color:#820c01;stop-opacity:1"/><stop offset="46%" style="stop-color:#a31601;stop-opacity:1"/><stop offset="72%" style="stop-color:#b31301;stop-opacity:1"/><stop offset="99%" style="stop-color:#e82609;stop-opacity:1"/><stop offset="100%" style="stop-color:#e82609;stop-opacity:1"/></linearGradient><linearGradient id="_Linear10" x1="0" y1="0" x2="1" y2="0" gradientUnits="userSpaceOnUse" gradientTransform="matrix(-23.1285,-5.7083,5.7083,-23.1285,49.5373,85.5166)"><stop offset="0%" style="stop-color:#8c0c01;stop-opacity:1"/><stop offset="0%" style="stop-color:#8c0c01;stop-opacity:1"/><stop offset="54%" style="stop-color:#990c00;stop-opacity:1"/><stop offset="99%" style="stop-color:#a80d0e;stop-opacity:1"/><stop offset="100%" style="stop-color:#a80d0e;stop-opacity:1"/></linearGradient><linearGradient id="_Linear11" x1="0" y1="0" x2="1" y2="0" gradientUnits="userSpaceOnUse" gradientTransform="matrix(-20.5466,-18.4153,18.4153,-20.5466,89.2629,57.7573)"><stop offset="0%" style="stop-color:#7e110b;stop-opacity:1"/><stop offset="0%" style="stop-color:#7e110b;stop-opacity:1"/><stop offset="99%" style="stop-color:#9e0c00;stop-opacity:1"/><stop offset="100%" style="stop-color:#9e0c00;stop-opacity:1"/></linearGradient><linearGradient id="_Linear12" x1="0" y1="0" x2="1" y2="0" gradientUnits="userSpaceOnUse" gradientTransform="matrix(-10.2346,-10.9416,10.9416,-10.2346,96.8118,23.9685)"><stop offset="0%" style="stop-color:#79130d;stop-opacity:1"/><stop offset="0%" style="stop-color:#79130d;stop-opacity:1"/><stop offset="99%" style="stop-color:#9e120b;stop-opacity:1"/><stop offset="100%" style="stop-color:#9e120b;stop-opacity:1"/></linearGradient><radialGradient id="_Radial13" cx="0" cy="0" r="1" gradientUnits="userSpaceOnUse" gradientTransform="matrix(25.1788,0,0,25.1788,71.9158,39.6941)"><stop offset="0%" style="stop-color:#a80d00;stop-opacity:1"/><stop offset="0%" style="stop-color:#a80d00;stop-opacity:1"/><stop offset="99%" style="stop-color:#7e0e08;stop-opacity:1"/><stop offset="100%" style="stop-color:#7e0e08;stop-opacity:1"/></radialGradient><radialGradient id="_Radial14" cx="0" cy="0" r="1" gradientUnits="userSpaceOnUse" gradientTransform="matrix(33.4719,0,0,33.4719,37.0461,72.8755)"><stop offset="0%" style="stop-color:#a30c00;stop-opacity:1"/><stop offset="0%" style="stop-color:#a30c00;stop-opacity:1"/><stop offset="99%" style="stop-color:#800e08;stop-opacity:1"/><stop offset="100%" style="stop-color:#800e08;stop-opacity:1"/></radialGradient><linearGradient id="_Linear15" x1="0" y1="0" x2="1" y2="0" gradientUnits="userSpaceOnUse" gradientTransform="matrix(-8.3406,-28.297,28.297,-8.3406,13.335,98.668)"><stop offset="0%" style="stop-color:#8b2114;stop-opacity:1"/><stop offset="0%" style="stop-color:#8b2114;stop-opacity:1"/><stop offset="43%" style="stop-color:#9e100a;stop-opacity:1"/><stop offset="99%" style="stop-color:#b3100c;stop-opacity:1"/><stop offset="100%" style="stop-color:#b3100c;stop-opacity:1"/></linearGradient><linearGradient id="_Linear16" x1="0" y1="0" x2="1" y2="0" gradientUnits="userSpaceOnUse" gradientTransform="matrix(18.6989,8.254,-8.254,18.6989,77.3205,4.89895)"><stop offset="0%" style="stop-color:#b31000;stop-opacity:1"/><stop offset="0%" style="stop-color:#b31000;stop-opacity:1"/><stop offset="44%" style="stop-color:#910f08;stop-opacity:1"/><stop offset="99%" style="stop-color:#791c12;stop-opacity:1"/><stop offset="100%" style="stop-color:#791c12;stop-opacity:1"/></linearGradient></defs></svg>