<?xml version="1.0" standalone="no"?><!DOCTYPE svg PUBLIC "-//W3C//DTD SVG 1.1//EN" "http://www.w3.org/Graphics/SVG/1.1/DTD/svg11.dtd"><svg width="100%" height="100%" viewBox="0 0 129 144" version="1.1" xmlns="http://www.w3.org/2000/svg" xmlns:xlink="http://www.w3.org/1999/xlink" xml:space="preserve" style="fill-rule:evenodd;clip-rule:evenodd;stroke-linejoin:round;stroke-miterlimit:1.41421;"><g><g><g><path d="M78.85,29.42c0,0 22.921,-19.102 38.691,-2.788c15.769,16.315 10.009,33.223 8.605,38.328c-1.404,5.105 -8.977,18.157 -25.597,19.418c-16.62,1.262 -35.365,-9.925 -38.813,-24.387c-3.448,-14.462 13.748,-26.917 17.114,-30.571ZM86.92,41.528c0,0 11.5,-9.584 19.412,-1.398c7.913,8.186 5.023,16.669 4.318,19.231c-0.704,2.561 -4.504,9.11 -12.843,9.743c-8.339,0.633 -17.744,-4.98 -19.474,-12.236c-1.73,-7.257 6.897,-13.506 8.587,-15.34Z" style="fill:#0a0027;"/></g><g><path d="M52.726,2.435c0,0 -11.769,3.624 -15.489,9.208c-3.719,5.584 -9.567,18.095 0.472,29.772c10.039,11.676 24.14,14.181 40.218,6.589c16.079,-7.592 11.885,-27.401 10.259,-31.612c-1.626,-4.211 -6.8,-12.237 -17.127,-14.815c-10.328,-2.579 -13.89,-0.167 -18.333,0.858ZM57.363,15.66c0,0 -6.113,1.73 -7.81,4.278c-1.697,2.548 -3.623,8.18 0.958,13.508c4.581,5.328 11.015,6.47 18.351,3.006c7.336,-3.463 5.422,-12.502 4.68,-14.424c-0.742,-1.921 -3.102,-5.583 -7.814,-6.759c-4.713,-1.177 -6.338,-0.076 -8.365,0.391Z" style="fill:#0a0027;"/></g><g><path d="M60.172,40.035c0,0 17.591,3.577 19.976,25.64c2.385,22.063 -3.876,27.728 -10.137,34.585c-6.261,6.858 -28.324,11.628 -37.865,9.541c-9.541,-2.087 -24.746,-12.82 -29.218,-26.237c-4.472,-13.417 -2.684,-23.852 1.192,-31.305c3.876,-7.454 14.311,-16.697 23.256,-17.889c8.944,-1.193 15.205,-2.684 22.659,0.596c7.454,3.28 2.385,1.193 10.137,5.069ZM49.959,51.853c0,0 12.278,3.43 13.669,16.304c1.392,12.875 -2.261,16.18 -5.915,20.182c-3.654,4.002 -16.528,6.785 -22.095,5.567c-5.568,-1.217 -14.441,-7.481 -17.051,-15.31c-2.609,-7.829 -1.565,-13.918 0.696,-18.268c2.262,-4.349 8.351,-9.743 13.571,-10.439c5.219,-0.696 8.873,-1.566 13.222,0.348c4.35,1.914 1.728,0.696 3.903,1.616Z" style="fill:#0a0027;"/></g></g><text x="-0.96px" y="142.185px" style="font-family:Source Sans Pro;font-size:37.572px;font-weight:200;fill:#130d24;">c<tspan x="13.543px 30.225px 43.375px 56.526px 62.988px 76.138px 94.549px 111.155px " y="142.185px 142.185px 142.185px 142.185px 142.185px 142.185px 142.185px 142.185px ">assisdev</tspan></text></g></svg>