<svg width="100%" height="100%" viewBox="0 0 122 157" version="1.1" xmlns="http://www.w3.org/2000/svg" xmlns:xlink="http://www.w3.org/1999/xlink" xml:space="preserve" style="fill-rule:evenodd;clip-rule:evenodd;stroke-linejoin:round;stroke-miterlimit:1.41421;"><path id="path3907" d="M1.96,155.725c0,0 0.238,-37.323 0.238,-75.263c0,-73.488 -6.192,-78.962 26.781,-78.962c32.973,0 91.779,0 91.779,0c0,0 0,71.106 0,106c0,34.894 6.522,48.564 -30.148,48.564c-36.671,0 -88.65,-0.339 -88.65,-0.339Z" style="fill:#a62c39;fill-rule:nonzero;"/><path id="path3947" d="M77.63,15.364c0,0 5.881,1.176 10.978,9.801c5.097,8.626 32.15,75.67 32.15,75.67l0,-54.498l-25.093,-40.775l7.057,8.625l13.331,-10.978l-17.251,-1.176l-21.172,13.331Z" style="fill:url(#_Linear1b);fill-rule:nonzero;"/><g id="Red3"><path id="path3934" d="M25.485,2.425c0,0 38.815,25.877 57.634,30.974c18.819,5.097 38.423,10.586 38.423,10.586l-44.696,109.779l19.211,0.785l25.093,-61.948l-0.784,-90.568l-94.881,0.392Z" style="fill:url(#_Radial2);fill-rule:nonzero;"/><path id="path3960" d="M61.555,118.086l40.378,38.834l-75.272,-1.587c0,0 -2.353,-23.917 -1.568,-36.463c0.784,-12.546 4.704,-12.546 4.704,-12.546l31.758,11.762Z" style="fill:#fff;fill-opacity:0.439216;fill-rule:nonzero;"/></g><g id="Red4"><path id="path3958" d="M98.802,156.117l-36.463,-37.639l-33.326,-12.546l-25.876,-57.635l27.445,-45.872l-18.428,-0.784l-7.449,7.057l-2.745,5.489l-1.96,142.714l98.802,-0.784Z" style="fill:#000;fill-opacity:0.360784;fill-rule:nonzero;"/><path id="path3962" d="M121.15,96.13c0,0 -36.855,11.762 -58.811,22.74c-21.956,10.978 -33.718,37.639 -33.718,37.639c0,0 47.049,-2.352 64.692,-1.568c17.643,0.784 25.876,0.784 27.445,-23.917c1.568,-24.7 0.392,-34.894 0.392,-34.894l0,0Z" style="fill:#83222d;fill-opacity:0.5;fill-rule:nonzero;"/></g><g id="RAILS"><path id="path3993" d="M13.321,119.545l0,23.157l5.906,0l0,-6.032l5.375,5.375l9.062,0l-7.187,-7.187c0,0 5.171,-0.084 5.562,-7.563c0,-6.861 -5.177,-7.75 -11.156,-7.75l-7.562,0ZM19.508,125.827l5.094,0l0,4.125l-5.094,0l0,-4.125Z" style="fill:#fff;fill-rule:nonzero;"/><path id="path3997" d="M45.071,119.639c-3.234,-0.018 -7.719,0.282 -7.719,6.375l0,16.094l6.062,0l0,-3.938l5.875,0l0,3.844l6.094,0l0,-16.875c0,-5.293 -5.88,-5.5 -9.031,-5.5c-0.394,0 -0.819,0.003 -1.281,0ZM43.508,125.452l5.688,0l0,6.343l-5.688,0l0,-6.343Z" style="fill:#fff;fill-rule:nonzero;"/><rect id="rect4001" x="61.457" y="119.654" width="6.273" height="22.152" style="fill:#fff;"/><path id="path4003" d="M74.297,119.948l0,22.152l15.095,0l0,-5.881l-8.92,0l0,-16.369l-6.175,0.098Z" style="fill:#fff;fill-rule:nonzero;"/><path id="path4005" d="M109.388,119.752l0,5.979l-10.096,0l0,2.157c0,0 2.058,0 4.313,0c2.254,0 6.959,-0.098 6.959,6.959c0,7.057 -3.235,7.449 -9.802,7.449c-6.567,0 -7.939,0 -7.939,0l0,-5.391c0,0 6.371,0 9.115,0c2.745,0 2.896,-0.893 2.896,-1.671c0,-0.779 -1.403,-1.141 -4.257,-1.141c-2.853,0 -8.146,-1.402 -8.146,-6.891c0,-5.489 2.744,-7.548 8.233,-7.548c5.489,0 8.724,0.098 8.724,0.098l0,0Z" style="fill:#fff;fill-rule:nonzero;"/></g><g id="logo"><path id="path3966" d="M18.819,112.989l52.146,0c0,0 -11.566,-26.269 -8.626,-50.381c2.941,-24.112 21.956,-35.09 32.738,-36.266c10.782,-1.177 16.663,5.489 16.663,5.489l2.353,-3.529c0,0 -15.487,-15.683 -35.091,-13.919c-19.603,1.765 -33.13,14.703 -41.559,30.386c-8.43,15.683 -13.331,26.661 -16.663,43.128c-3.333,16.467 -1.961,25.092 -1.961,25.092l0,0Z" style="fill:#fff;fill-rule:nonzero;"/><path id="path3968" d="M8.43,86.72l10.193,0.785l-1.764,10.193l-9.606,-1.176l1.177,-9.802Z" style="fill:#fff;fill-rule:nonzero;"/><path id="path3970" d="M24.504,65.157l2.745,-7.646l-9.018,-3.528l-2.94,8.233l9.213,2.941Z" style="fill:#fff;fill-rule:nonzero;"/><path id="path3972" d="M37.247,38.888l5.293,-6.273l-6.862,-4.509l-5.489,6.077l7.058,4.705Z" style="fill:#fff;fill-rule:nonzero;"/><path id="path3974" d="M51.165,14.579l4.705,5.685l6.469,-3.724l-4.705,-5.293l-6.469,3.332Z" style="fill:#fff;fill-rule:nonzero;"/><path id="path3976" d="M74.101,8.11l1.177,5.685l8.037,-0.196l-0.784,-5.097l-8.43,-0.392Z" style="fill:#fff;fill-rule:nonzero;"/><path id="path3978" d="M101.35,14.187l-0.196,3.529l5.489,2.941l1.176,-1.765l-6.469,-4.705Z" style="fill:#fff;fill-rule:nonzero;"/><path id="path3980" d="M100.174,29.282l0,2.941l5.293,0.588l0,-2.353l-5.293,-1.176Z" style="fill:#fff;fill-rule:nonzero;"/><path id="path3982" d="M83.315,31.831l2.548,4.704l3.725,-2.94l-0.784,-3.137l-5.489,1.373Z" style="fill:#fff;fill-rule:nonzero;"/><path id="path3984" d="M75.278,37.908l3.92,5.881l-2.352,4.116l-5.685,-6.273l4.117,-3.724Z" style="fill:#fff;fill-rule:nonzero;"/><path id="path3986" d="M67.436,54.179l-2.548,5.096l6.665,5.685l1.568,-6.469l-5.685,-4.312Z" style="fill:#fff;fill-rule:nonzero;"/><path id="path3988" d="M64.692,72.018l-0.392,6.861l8.233,3.529l-0.392,-6.47l-7.449,-3.92Z" style="fill:#fff;fill-rule:nonzero;"/><path id="path3990" d="M67.044,96.326l1.96,7.057l10.39,0.589l-3.724,-7.646l-8.626,0Z" style="fill:#fff;fill-rule:nonzero;"/></g><path id="path3913" d="M122.258,107.499l0.001,0.812l0.002,0.803l0.004,0.796l0.006,0.788l0.007,0.78l0.008,0.773l0.009,0.766l0.01,0.758l0.01,0.751l0.012,0.744l0.024,1.465l0.025,1.436l0.026,1.407l0.024,1.379l0.023,1.35l0.01,0.665l0.009,0.658l0.008,0.65l0.007,0.644l0.006,0.637l0.005,0.63l0.003,0.623l0.001,0.617l-0.001,0.61l-0.002,0.603l-0.005,0.596l-0.007,0.59l-0.009,0.583l-0.012,0.576l-0.014,0.57l-0.017,0.563l-0.009,0.28l-0.011,0.278l-0.011,0.276l-0.012,0.275l-0.012,0.273l-0.014,0.271l-0.014,0.27l-0.015,0.268l-0.016,0.267l-0.017,0.265l-0.018,0.263l-0.018,0.262l-0.02,0.261l-0.02,0.258l-0.022,0.258l-0.022,0.256l-0.024,0.254l-0.024,0.253l-0.026,0.251l-0.027,0.25l-0.027,0.248l-0.029,0.247l-0.03,0.245l-0.031,0.243l-0.033,0.243l-0.033,0.24l-0.035,0.24l-0.036,0.238l-0.037,0.236l-0.038,0.235l-0.04,0.233l-0.041,0.232l-0.042,0.231l-0.044,0.229l-0.045,0.227l-0.046,0.227l-0.048,0.224l-0.049,0.224l-0.051,0.222l-0.052,0.22l-0.054,0.219l-0.055,0.218l-0.057,0.216l-0.058,0.215l-0.06,0.213l-0.062,0.212l-0.063,0.211l-0.065,0.209l-0.066,0.208l-0.068,0.206l-0.07,0.205l-0.072,0.204l-0.073,0.202l-0.076,0.2l-0.077,0.199l-0.078,0.198l-0.081,0.197l-0.083,0.195l-0.084,0.193l-0.087,0.192l-0.088,0.191l-0.09,0.189l-0.093,0.188l-0.094,0.186l-0.096,0.184l-0.099,0.184l-0.1,0.181l-0.103,0.181l-0.104,0.178l-0.107,0.178l-0.109,0.175l-0.111,0.174l-0.113,0.173l-0.115,0.171l-0.118,0.169l-0.12,0.168l-0.121,0.166l-0.125,0.165l-0.126,0.163l-0.129,0.161l-0.13,0.16l-0.134,0.158l-0.135,0.156l-0.138,0.155l-0.14,0.153l-0.142,0.151l-0.144,0.15l-0.147,0.148l-0.149,0.146l-0.152,0.144l-0.154,0.143l-0.156,0.141l-0.158,0.139l-0.161,0.138l-0.163,0.135l-0.165,0.134l-0.168,0.132l-0.17,0.131l-0.172,0.128l-0.175,0.127l-0.177,0.125l-0.18,0.124l-0.181,0.121l-0.184,0.12l-0.187,0.118l-0.189,0.116l-0.191,0.115l-0.193,0.113l-0.196,0.111l-0.199,0.109l-0.2,0.107l-0.204,0.106l-0.205,0.104l-0.208,0.103l-0.21,0.1l-0.213,0.099l-0.215,0.098l-0.218,0.095l-0.22,0.094l-0.223,0.092l-0.225,0.091l-0.227,0.089l-0.23,0.087l-0.233,0.086l-0.235,0.084l-0.238,0.082l-0.24,0.081l-0.243,0.08l-0.245,0.077l-0.248,0.076l-0.25,0.075l-0.254,0.073l-0.255,0.071l-0.259,0.07l-0.261,0.068l-0.264,0.067l-0.267,0.065l-0.269,0.064l-0.272,0.062l-0.275,0.061l-0.277,0.059l-0.281,0.058l-0.283,0.056l-0.286,0.055l-0.289,0.053l-0.291,0.052l-0.295,0.051l-0.298,0.049l-0.3,0.047l-0.303,0.046l-0.307,0.045l-0.309,0.043l-0.312,0.042l-0.316,0.041l-0.318,0.039l-0.321,0.038l-0.325,0.036l-0.327,0.035l-0.331,0.033l-0.334,0.033l-0.336,0.03l-0.34,0.03l-0.344,0.028l-0.346,0.027l-0.35,0.025l-0.353,0.024l-0.356,0.023l-0.359,0.021l-0.363,0.02l-0.366,0.019l-0.369,0.018l-0.373,0.016l-0.376,0.014l-0.379,0.014l-0.383,0.012l-0.386,0.011l-0.389,0.01l-0.394,0.008l-0.396,0.007l-0.4,0.006l-0.404,0.004l-0.407,0.003l-0.41,0.002l-0.413,0.001l-3.345,-0.001l-3.438,-0.003l-3.52,-0.005l-3.589,-0.006l-3.643,-0.007l-3.686,-0.009l-3.715,-0.011l-3.73,-0.011l-3.734,-0.013l-3.722,-0.013l-3.699,-0.014l-3.662,-0.014l-7.16,-0.031l-6.854,-0.032l-6.442,-0.031l-5.926,-0.031l-5.303,-0.029l-4.576,-0.025l-6.546,-0.039l-3.87,-0.023l0.02,-3.178l0.027,-4.746l0.017,-3.389l0.021,-3.995l0.021,-4.548l0.022,-5.045l0.022,-5.49l0.022,-5.881l0.02,-6.219l0.009,-3.218l0.009,-3.283l0.008,-3.34l0.007,-3.391l0.006,-3.434l0.006,-3.472l0.004,-3.502l0.003,-3.527l0.002,-3.543l0.001,-3.553l-0.001,-1.708l-0.003,-1.683l-0.006,-1.659l-0.007,-1.635l-0.009,-1.61l-0.01,-1.587l-0.012,-1.563l-0.013,-1.539l-0.015,-1.515l-0.016,-1.493l-0.016,-1.47l-0.018,-1.446l-0.018,-1.424l-0.019,-1.402l-0.038,-2.736l-0.04,-2.649l-0.039,-2.563l-0.038,-2.478l-0.036,-2.394l-0.032,-2.313l-0.015,-1.127l-0.013,-1.106l-0.012,-1.087l-0.01,-1.068l-0.009,-1.048l-0.007,-1.029l-0.005,-1.01l-0.004,-0.991l-0.001,-0.973l0.002,-0.955l0.003,-0.937l0.007,-0.918l0.009,-0.9l0.005,-0.445l0.006,-0.439l0.007,-0.436l0.008,-0.431l0.008,-0.426l0.01,-0.423l0.01,-0.418l0.011,-0.414l0.011,-0.409l0.013,-0.406l0.014,-0.402l0.014,-0.397l0.015,-0.393l0.016,-0.39l0.018,-0.385l0.018,-0.381l0.019,-0.378l0.02,-0.373l0.021,-0.369l0.022,-0.366l0.023,-0.362l0.025,-0.358l0.025,-0.354l0.026,-0.35l0.028,-0.347l0.029,-0.342l0.03,-0.34l0.031,-0.335l0.032,-0.332l0.034,-0.328l0.034,-0.325l0.036,-0.321l0.038,-0.318l0.038,-0.314l0.04,-0.31l0.042,-0.307l0.042,-0.304l0.044,-0.3l0.046,-0.297l0.047,-0.294l0.048,-0.291l0.05,-0.287l0.051,-0.283l0.053,-0.281l0.055,-0.277l0.056,-0.275l0.057,-0.271l0.06,-0.268l0.061,-0.265l0.062,-0.262l0.065,-0.258l0.066,-0.256l0.068,-0.253l0.069,-0.25l0.072,-0.247l0.073,-0.244l0.075,-0.241l0.077,-0.238l0.079,-0.235l0.081,-0.233l0.083,-0.23l0.085,-0.227l0.087,-0.224l0.09,-0.221l0.091,-0.219l0.093,-0.216l0.096,-0.213l0.098,-0.21l0.1,-0.208l0.102,-0.205l0.105,-0.202l0.105,-0.197l0.056,-0.102l0.055,-0.098l0.055,-0.097l0.056,-0.097l0.057,-0.096l0.057,-0.096l0.058,-0.094l0.059,-0.094l0.059,-0.094l0.06,-0.092l0.06,-0.093l0.061,-0.091l0.061,-0.091l0.063,-0.09l0.062,-0.089l0.064,-0.089l0.064,-0.088l0.064,-0.087l0.066,-0.087l0.066,-0.085l0.066,-0.086l0.067,-0.084l0.068,-0.084l0.068,-0.083l0.069,-0.083l0.07,-0.082l0.07,-0.081l0.071,-0.08l0.072,-0.08l0.072,-0.079l0.073,-0.078l0.073,-0.078l0.074,-0.077l0.075,-0.076l0.075,-0.076l0.076,-0.075l0.077,-0.074l0.077,-0.073l0.078,-0.073l0.078,-0.072l0.079,-0.072l0.08,-0.07l0.08,-0.07l0.081,-0.07l0.081,-0.068l0.082,-0.068l0.083,-0.068l0.083,-0.066l0.084,-0.066l0.085,-0.065l0.085,-0.064l0.085,-0.064l0.087,-0.063l0.087,-0.063l0.087,-0.061l0.088,-0.061l0.089,-0.061l0.089,-0.059l0.09,-0.059l0.09,-0.058l0.091,-0.058l0.092,-0.057l0.092,-0.056l0.093,-0.056l0.093,-0.055l0.094,-0.054l0.095,-0.054l0.095,-0.053l0.095,-0.052l0.099,-0.053l0.191,-0.1l0.197,-0.099l0.198,-0.096l0.201,-0.094l0.203,-0.092l0.206,-0.089l0.207,-0.087l0.21,-0.084l0.212,-0.082l0.215,-0.08l0.216,-0.077l0.219,-0.076l0.222,-0.073l0.223,-0.071l0.226,-0.069l0.228,-0.067l0.231,-0.064l0.232,-0.063l0.236,-0.061l0.237,-0.059l0.24,-0.057l0.243,-0.056l0.245,-0.053l0.247,-0.052l0.25,-0.05l0.252,-0.048l0.255,-0.047l0.257,-0.045l0.26,-0.043l0.262,-0.042l0.265,-0.04l0.268,-0.039l0.27,-0.037l0.273,-0.036l0.276,-0.034l0.278,-0.033l0.281,-0.032l0.284,-0.03l0.287,-0.029l0.289,-0.028l0.292,-0.026l0.295,-0.025l0.298,-0.024l0.301,-0.023l0.304,-0.022l0.306,-0.02l0.31,-0.019l0.312,-0.019l0.316,-0.017l0.318,-0.016l0.322,-0.015l0.325,-0.015l0.327,-0.013l0.331,-0.012l0.334,-0.012l0.337,-0.01l0.34,-0.01l0.344,-0.009l0.346,-0.008l0.35,-0.007l0.353,-0.007l0.357,-0.006l0.36,-0.005l0.728,-0.008l0.743,-0.006l0.756,-0.003l0.769,-0.001l93.28,0l0,107.499ZM28.217,3.001l-0.746,0.003l-0.732,0.006l-0.719,0.008l-0.353,0.005l-0.349,0.006l-0.347,0.006l-0.342,0.007l-0.339,0.008l-0.336,0.009l-0.332,0.009l-0.328,0.011l-0.325,0.011l-0.322,0.012l-0.318,0.013l-0.314,0.013l-0.311,0.015l-0.308,0.016l-0.304,0.017l-0.301,0.017l-0.297,0.019l-0.294,0.019l-0.29,0.021l-0.288,0.022l-0.283,0.023l-0.281,0.023l-0.277,0.025l-0.273,0.027l-0.27,0.027l-0.267,0.028l-0.264,0.03l-0.26,0.031l-0.257,0.032l-0.254,0.033l-0.251,0.034l-0.247,0.036l-0.244,0.037l-0.24,0.039l-0.238,0.039l-0.234,0.041l-0.231,0.042l-0.228,0.044l-0.225,0.045l-0.221,0.046l-0.218,0.048l-0.215,0.049l-0.212,0.051l-0.209,0.052l-0.206,0.053l-0.203,0.055l-0.2,0.056l-0.196,0.057l-0.194,0.06l-0.19,0.06l-0.188,0.062l-0.184,0.064l-0.182,0.065l-0.179,0.066l-0.176,0.068l-0.173,0.07l-0.17,0.071l-0.167,0.072l-0.165,0.074l-0.161,0.076l-0.159,0.077l-0.157,0.079l-0.156,0.082l-0.074,0.039l-0.075,0.041l-0.074,0.042l-0.074,0.042l-0.074,0.042l-0.073,0.043l-0.072,0.043l-0.071,0.044l-0.071,0.044l-0.071,0.045l-0.069,0.045l-0.069,0.045l-0.069,0.046l-0.068,0.046l-0.067,0.047l-0.067,0.047l-0.066,0.048l-0.066,0.048l-0.065,0.048l-0.065,0.049l-0.064,0.049l-0.064,0.05l-0.063,0.051l-0.062,0.05l-0.062,0.052l-0.062,0.052l-0.061,0.052l-0.06,0.053l-0.06,0.053l-0.06,0.054l-0.059,0.054l-0.059,0.055l-0.058,0.055l-0.057,0.056l-0.058,0.057l-0.056,0.057l-0.057,0.057l-0.056,0.058l-0.055,0.059l-0.055,0.059l-0.055,0.06l-0.054,0.06l-0.054,0.061l-0.053,0.062l-0.053,0.062l-0.052,0.063l-0.052,0.063l-0.052,0.064l-0.051,0.065l-0.051,0.065l-0.051,0.066l-0.05,0.066l-0.05,0.068l-0.049,0.067l-0.049,0.069l-0.049,0.069l-0.048,0.07l-0.048,0.071l-0.047,0.071l-0.048,0.072l-0.046,0.072l-0.047,0.074l-0.046,0.074l-0.046,0.075l-0.045,0.075l-0.045,0.077l-0.045,0.077l-0.044,0.077l-0.044,0.079l-0.042,0.077l-0.087,0.163l-0.085,0.164l-0.084,0.167l-0.082,0.17l-0.08,0.173l-0.079,0.177l-0.078,0.18l-0.077,0.183l-0.075,0.187l-0.074,0.19l-0.072,0.193l-0.071,0.197l-0.07,0.201l-0.069,0.203l-0.067,0.208l-0.065,0.21l-0.065,0.215l-0.063,0.218l-0.062,0.222l-0.06,0.225l-0.059,0.229l-0.058,0.232l-0.057,0.236l-0.055,0.24l-0.054,0.244l-0.052,0.248l-0.052,0.251l-0.05,0.255l-0.049,0.259l-0.047,0.262l-0.046,0.267l-0.045,0.27l-0.044,0.274l-0.043,0.278l-0.041,0.282l-0.04,0.286l-0.039,0.29l-0.038,0.294l-0.037,0.298l-0.035,0.301l-0.035,0.306l-0.033,0.31l-0.032,0.314l-0.031,0.318l-0.03,0.322l-0.028,0.326l-0.028,0.33l-0.027,0.334l-0.025,0.338l-0.025,0.343l-0.023,0.347l-0.023,0.351l-0.021,0.355l-0.021,0.359l-0.019,0.364l-0.019,0.368l-0.018,0.372l-0.016,0.377l-0.016,0.38l-0.015,0.385l-0.014,0.39l-0.013,0.394l-0.013,0.398l-0.011,0.403l-0.011,0.407l-0.01,0.412l-0.009,0.416l-0.009,0.42l-0.007,0.425l-0.007,0.43l-0.006,0.434l-0.006,0.438l-0.008,0.892l-0.007,0.91l-0.003,0.928l-0.002,0.947l0.001,0.966l0.004,0.986l0.005,1.004l0.007,1.024l0.008,1.044l0.011,1.064l0.012,1.083l0.013,1.104l0.015,1.123l0.032,2.31l0.035,2.393l0.038,2.477l0.04,2.563l0.039,2.651l0.039,2.739l0.019,1.403l0.018,1.427l0.018,1.448l0.016,1.472l0.016,1.495l0.014,1.519l0.014,1.542l0.012,1.566l0.01,1.59l0.009,1.613l0.007,1.638l0.006,1.663l0.003,1.687l0.001,1.712l-0.001,3.554l-0.002,3.545l-0.003,3.527l-0.004,3.503l-0.006,3.473l-0.006,3.435l-0.007,3.392l-0.008,3.341l-0.009,3.283l-0.009,3.22l-0.02,6.219l-0.022,5.882l-0.022,5.491l-0.022,5.047l-0.021,4.548l-0.021,3.996l-0.018,3.391l-0.026,4.747l-0.002,0.178l0.87,0.005l6.545,0.039l4.575,0.025l5.303,0.029l5.925,0.031l6.442,0.031l6.853,0.032l7.159,0.031l3.661,0.014l3.698,0.014l3.722,0.013l3.732,0.013l3.73,0.011l3.714,0.011l3.684,0.009l3.643,0.007l3.587,0.006l3.519,0.005l3.437,0.003l3.341,0.001l0.406,-0.001l0.401,-0.002l0.397,-0.003l0.394,-0.004l0.39,-0.006l0.386,-0.006l0.383,-0.009l0.379,-0.009l0.375,-0.01l0.372,-0.012l0.368,-0.013l0.365,-0.015l0.361,-0.015l0.357,-0.017l0.354,-0.018l0.35,-0.02l0.347,-0.02l0.343,-0.022l0.339,-0.023l0.337,-0.025l0.332,-0.026l0.33,-0.027l0.325,-0.028l0.323,-0.029l0.319,-0.031l0.315,-0.032l0.312,-0.033l0.309,-0.035l0.306,-0.036l0.302,-0.037l0.298,-0.038l0.296,-0.04l0.292,-0.041l0.288,-0.042l0.286,-0.043l0.282,-0.045l0.279,-0.046l0.276,-0.047l0.272,-0.049l0.269,-0.049l0.266,-0.051l0.263,-0.053l0.26,-0.053l0.257,-0.055l0.253,-0.056l0.25,-0.057l0.247,-0.059l0.244,-0.059l0.241,-0.061l0.238,-0.062l0.235,-0.064l0.232,-0.065l0.229,-0.066l0.226,-0.067l0.223,-0.068l0.219,-0.07l0.217,-0.07l0.214,-0.072l0.211,-0.074l0.209,-0.074l0.205,-0.076l0.202,-0.077l0.2,-0.078l0.197,-0.079l0.194,-0.08l0.191,-0.082l0.189,-0.083l0.185,-0.084l0.183,-0.085l0.181,-0.086l0.178,-0.088l0.175,-0.088l0.172,-0.09l0.17,-0.091l0.167,-0.092l0.165,-0.094l0.162,-0.094l0.16,-0.096l0.157,-0.097l0.155,-0.098l0.153,-0.099l0.15,-0.1l0.148,-0.102l0.145,-0.103l0.143,-0.104l0.141,-0.105l0.139,-0.106l0.136,-0.108l0.135,-0.109l0.132,-0.109l0.13,-0.112l0.128,-0.112l0.126,-0.114l0.124,-0.115l0.121,-0.116l0.12,-0.118l0.118,-0.118l0.116,-0.12l0.115,-0.122l0.112,-0.123l0.11,-0.124l0.109,-0.125l0.107,-0.127l0.105,-0.129l0.104,-0.129l0.101,-0.132l0.1,-0.132l0.099,-0.134l0.096,-0.136l0.095,-0.137l0.094,-0.138l0.092,-0.141l0.09,-0.141l0.089,-0.143l0.087,-0.145l0.086,-0.147l0.084,-0.148l0.083,-0.149l0.081,-0.152l0.08,-0.153l0.078,-0.154l0.077,-0.157l0.075,-0.158l0.074,-0.159l0.073,-0.162l0.071,-0.163l0.07,-0.165l0.069,-0.167l0.067,-0.168l0.066,-0.17l0.064,-0.172l0.063,-0.174l0.062,-0.176l0.061,-0.177l0.059,-0.179l0.058,-0.181l0.056,-0.183l0.056,-0.185l0.054,-0.186l0.053,-0.189l0.051,-0.19l0.051,-0.192l0.049,-0.194l0.048,-0.195l0.047,-0.198l0.045,-0.2l0.045,-0.201l0.043,-0.203l0.042,-0.205l0.041,-0.207l0.04,-0.209l0.039,-0.211l0.037,-0.212l0.037,-0.215l0.035,-0.216l0.034,-0.218l0.033,-0.22l0.033,-0.222l0.031,-0.224l0.03,-0.226l0.029,-0.227l0.028,-0.23l0.027,-0.231l0.026,-0.233l0.025,-0.235l0.024,-0.237l0.023,-0.239l0.023,-0.241l0.021,-0.243l0.021,-0.244l0.019,-0.247l0.019,-0.248l0.018,-0.25l0.017,-0.252l0.016,-0.254l0.015,-0.256l0.015,-0.258l0.013,-0.259l0.013,-0.262l0.012,-0.263l0.012,-0.266l0.011,-0.267l0.01,-0.269l0.009,-0.27l0.016,-0.548l0.014,-0.555l0.012,-0.563l0.008,-0.57l0.007,-0.578l0.005,-0.585l0.002,-0.593l0.001,-0.601l-0.001,-0.608l-0.003,-0.615l-0.005,-0.624l-0.005,-0.63l-0.007,-0.639l-0.009,-0.646l-0.009,-0.654l-0.01,-0.661l-0.022,-1.346l-0.025,-1.377l-0.025,-1.407l-0.026,-1.439l-0.024,-1.469l-0.011,-0.746l-0.011,-0.754l-0.01,-0.763l-0.009,-0.769l-0.008,-0.778l-0.007,-0.786l-0.006,-0.793l-0.004,-0.801l-0.002,-0.81l-0.001,-0.816l0,-104.501l-90.278,0l-0.763,0.001Z" style="fill:#5e000e;"/><defs><linearGradient id="_Linear1b" x1="0" y1="0" x2="1" y2="0" gradientUnits="userSpaceOnUse" gradientTransform="matrix(28.4449,-14.8987,14.8987,28.4449,92.8128,66.3327)"><stop offset="0%" style="stop-color:#fff;stop-opacity:1"/><stop offset="100%" style="stop-color:#c0815e;stop-opacity:1"/></linearGradient><radialGradient id="_Radial2" cx="0" cy="0" r="1" gradientUnits="userSpaceOnUse" gradientTransform="matrix(48.5286,0,0,76.7577,73.5132,78.2908)"><stop offset="0%" style="stop-color:#fff;stop-opacity:0.668224"/><stop offset="100%" style="stop-color:#a94436;stop-opacity:0.668224"/></radialGradient></defs></svg>