<?xml version="1.0" standalone="no"?><!DOCTYPE svg PUBLIC "-//W3C//DTD SVG 1.1//EN" "http://www.w3.org/Graphics/SVG/1.1/DTD/svg11.dtd"><svg width="100%" height="100%" viewBox="0 0 316 272" version="1.1" xmlns="http://www.w3.org/2000/svg" xmlns:xlink="http://www.w3.org/1999/xlink" xml:space="preserve" style="fill-rule:evenodd;clip-rule:evenodd;stroke-linejoin:round;stroke-miterlimit:1.41421;"><g><g><path d="M194.112,74.463c0,0 55.721,-46.437 94.057,-6.776c38.336,39.661 24.334,80.765 20.921,93.175c-3.413,12.41 -21.823,44.141 -62.227,47.207c-40.404,3.066 -85.973,-24.129 -94.355,-59.287c-8.382,-35.157 33.42,-65.435 41.604,-74.319ZM213.729,103.9c0,0 27.958,-23.3 47.193,-3.4c19.235,19.9 12.209,40.524 10.497,46.75c-1.713,6.227 -10.95,22.148 -31.222,23.686c-20.273,1.539 -43.137,-12.106 -47.343,-29.747c-4.205,-17.64 16.769,-32.832 20.875,-37.289Z" style="fill:#0a0027;"/></g><g><path d="M130.603,8.862c0,0 -28.611,8.811 -37.652,22.386c-9.042,13.575 -23.26,43.99 1.146,72.376c24.406,28.386 58.686,34.473 97.772,16.018c39.086,-18.455 28.891,-66.613 24.938,-76.85c-3.953,-10.237 -16.529,-29.747 -41.636,-36.016c-25.108,-6.269 -33.766,-0.404 -44.568,2.086ZM141.876,41.014c0,0 -14.861,4.205 -18.987,10.399c-4.125,6.194 -8.806,19.886 2.33,32.838c11.136,12.952 26.777,15.729 44.611,7.309c17.834,-8.421 13.183,-30.394 11.379,-35.065c-1.804,-4.671 -7.542,-13.573 -18.998,-16.433c-11.456,-2.861 -15.406,-0.185 -20.335,0.952Z" style="fill:#0a0027;"/></g><g><path d="M148.705,100.268c0,0 42.763,8.698 48.562,62.333c5.798,53.635 -9.423,67.406 -24.644,84.077c-15.22,16.67 -68.856,28.267 -92.049,23.193c-23.194,-5.073 -60.159,-31.166 -71.031,-63.782c-10.872,-32.616 -6.523,-57.984 2.899,-76.104c9.423,-18.12 34.791,-40.589 56.535,-43.488c21.744,-2.899 36.965,-6.523 55.085,1.449c18.12,7.973 5.798,2.9 24.643,12.322ZM123.877,128.999c0,0 29.847,8.338 33.231,39.636c3.383,31.298 -5.499,39.334 -14.381,49.062c-8.882,9.728 -40.18,16.495 -53.714,13.535c-13.535,-2.961 -35.105,-18.187 -41.449,-37.22c-6.345,-19.033 -3.807,-33.836 1.691,-44.41c5.499,-10.574 20.302,-23.685 32.99,-25.377c12.689,-1.692 21.571,-3.806 32.145,0.846c10.573,4.652 4.199,1.692 9.487,3.928Z" style="fill:#0a0027;"/></g></g></svg>