<?xml version="1.0" standalone="no"?><!DOCTYPE svg PUBLIC "-//W3C//DTD SVG 1.1//EN" "http://www.w3.org/Graphics/SVG/1.1/DTD/svg11.dtd"><svg width="100%" height="100%" viewBox="0 0 119 132" version="1.1" xmlns="http://www.w3.org/2000/svg" xmlns:xlink="http://www.w3.org/1999/xlink" xml:space="preserve" style="fill-rule:evenodd;clip-rule:evenodd;stroke-linejoin:round;stroke-miterlimit:1.41421;"><g><g><path d="M72.538,27.127c0,0 21.108,-17.591 35.631,-2.568c14.522,15.025 9.218,30.596 7.925,35.297c-1.293,4.701 -8.267,16.721 -23.573,17.883c-15.306,1.162 -32.568,-9.141 -35.743,-22.459c-3.176,-13.318 12.66,-24.788 15.76,-28.153l0,0ZM79.97,38.277c0,0 10.59,-8.826 17.877,-1.287c7.287,7.539 4.625,15.351 3.976,17.71c-0.648,2.358 -4.148,8.39 -11.827,8.972c-7.68,0.583 -16.341,-4.586 -17.934,-11.268c-1.593,-6.683 6.352,-12.438 7.908,-14.127l0,0Z" style="fill:#0a0027;"/><path d="M48.48,2.276c0,0 -10.838,3.337 -14.264,8.48c-3.425,5.142 -8.81,16.664 0.435,27.417c9.245,10.753 22.231,13.06 37.037,6.068c14.808,-6.991 10.945,-25.234 9.448,-29.112c-1.498,-3.878 -6.262,-11.269 -15.773,-13.643c-9.511,-2.375 -12.791,-0.154 -16.883,0.79ZM52.75,14.455c0,0 -5.629,1.593 -7.192,3.94c-1.563,2.346 -3.336,7.533 0.882,12.44c4.219,4.906 10.144,5.958 16.9,2.768c6.756,-3.189 4.993,-11.513 4.31,-13.283c-0.683,-1.77 -2.857,-5.142 -7.196,-6.225c-4.34,-1.084 -5.837,-0.07 -7.704,0.36l0,0Z" style="fill:#0a0027;"/><path d="M55.337,36.902c0,0 16.2,3.295 18.397,23.613c2.196,20.318 -3.57,25.535 -9.336,31.849c-5.766,6.316 -26.084,10.709 -34.87,8.787c-8.787,-1.922 -22.789,-11.806 -26.907,-24.162c-4.119,-12.356 -2.472,-21.966 1.097,-28.829c3.57,-6.865 13.179,-15.377 21.417,-16.475c8.237,-1.098 14.003,-2.471 20.867,0.549c6.865,3.021 2.196,1.099 9.335,4.668l0,0ZM45.932,47.786c0,0 11.307,3.159 12.588,15.014c1.282,11.857 -2.082,14.901 -5.447,18.586c-3.365,3.686 -15.221,6.249 -20.348,5.127c-5.127,-1.121 -13.299,-6.889 -15.702,-14.099c-2.403,-7.21 -1.442,-12.817 0.641,-16.823c2.083,-4.006 7.69,-8.973 12.497,-9.614c4.807,-0.641 8.172,-1.442 12.177,0.321c4.006,1.762 1.591,0.641 3.594,1.488Z" style="fill:#0a0027;"/></g><g><path d="M0.839,122.704c0,5.502 3.253,8.685 7.543,8.685c2.111,0 3.875,-0.934 5.294,-2.214l-0.796,-1.038c-1.142,1.038 -2.664,1.903 -4.429,1.903c-3.633,0 -6.02,-2.976 -6.02,-7.336c0,-4.394 2.63,-7.404 6.02,-7.404c1.627,0 2.872,0.761 3.945,1.764l0.899,-1.072c-1.107,-1.038 -2.595,-2.042 -4.878,-2.042c-4.049,0 -7.578,3.184 -7.578,8.754Z" style="fill:#130d24;fill-rule:nonzero;"/><g><path d="M14.645,126.822c0,3.148 2.214,4.567 4.844,4.567c2.18,0 4.187,-1.211 5.882,-2.56l0.069,0l0.173,2.145l1.281,0l0,-10.623c0,-3.563 -1.315,-6.401 -5.26,-6.401c-2.698,0 -4.982,1.315 -6.159,2.146l0.692,1.141c1.108,-0.83 3.045,-1.937 5.294,-1.937c3.253,0 3.979,2.733 3.91,5.259c-7.37,0.83 -10.726,2.595 -10.726,6.263ZM16.237,126.753c0,-2.63 2.318,-4.222 9.134,-5.018l0,5.64c-2.041,1.765 -3.737,2.699 -5.64,2.699c-1.903,0 -3.494,-0.934 -3.494,-3.321Z" style="fill:#130d24;fill-rule:nonzero;"/><path d="M28.624,129.105c1.488,1.246 3.633,2.284 6.089,2.284c3.599,0 5.606,-2.18 5.606,-4.671c0,-3.253 -2.838,-4.118 -5.433,-5.086c-1.972,-0.727 -3.909,-1.454 -3.909,-3.357c0,-1.522 1.176,-3.01 3.736,-3.01c1.696,0 2.872,0.658 3.979,1.488l0.831,-1.073c-1.211,-1.003 -2.976,-1.73 -4.74,-1.73c-3.46,0 -5.363,2.007 -5.363,4.429c0,2.837 2.768,3.841 5.293,4.74c1.903,0.692 4.049,1.592 4.049,3.668c0,1.765 -1.35,3.287 -3.945,3.287c-2.387,0 -3.875,-0.934 -5.294,-2.11l-0.899,1.141Z" style="fill:#130d24;fill-rule:nonzero;"/><path d="M40.492,129.105c1.488,1.246 3.633,2.284 6.089,2.284c3.599,0 5.606,-2.18 5.606,-4.671c0,-3.253 -2.838,-4.118 -5.433,-5.086c-1.972,-0.727 -3.909,-1.454 -3.909,-3.357c0,-1.522 1.176,-3.01 3.736,-3.01c1.696,0 2.872,0.658 3.979,1.488l0.831,-1.073c-1.211,-1.003 -2.976,-1.73 -4.74,-1.73c-3.46,0 -5.363,2.007 -5.363,4.429c0,2.837 2.768,3.841 5.293,4.74c1.903,0.692 4.049,1.592 4.049,3.668c0,1.765 -1.35,3.287 -3.945,3.287c-2.387,0 -3.875,-0.934 -5.294,-2.11l-0.899,1.141Z" style="fill:#130d24;fill-rule:nonzero;"/><path d="M55.232,110.352c0.761,0 1.384,-0.554 1.384,-1.35c0,-0.865 -0.623,-1.384 -1.384,-1.384c-0.762,0 -1.384,0.519 -1.384,1.384c0,0.796 0.622,1.35 1.384,1.35ZM54.436,130.974l1.522,0l0,-16.608l-1.522,0l0,16.608Z" style="fill:#130d24;fill-rule:nonzero;"/><path d="M58.138,129.105c1.488,1.246 3.633,2.284 6.09,2.284c3.598,0 5.605,-2.18 5.605,-4.671c0,-3.253 -2.837,-4.118 -5.432,-5.086c-1.973,-0.727 -3.91,-1.454 -3.91,-3.357c0,-1.522 1.176,-3.01 3.737,-3.01c1.695,0 2.872,0.658 3.979,1.488l0.83,-1.073c-1.211,-1.003 -2.975,-1.73 -4.74,-1.73c-3.46,0 -5.363,2.007 -5.363,4.429c0,2.837 2.768,3.841 5.294,4.74c1.903,0.692 4.048,1.592 4.048,3.668c0,1.765 -1.349,3.287 -3.944,3.287c-2.388,0 -3.876,-0.934 -5.294,-2.11l-0.9,1.141Z" style="fill:#130d24;fill-rule:nonzero;"/><path d="M70.698,122.704c0,5.606 2.699,8.685 6.886,8.685c2.214,0 4.048,-1.211 5.397,-2.56l0.104,0l0.138,2.145l1.315,0l0,-24.878l-1.522,0l0,6.851l0.069,3.045c-1.661,-1.28 -3.01,-2.042 -5.017,-2.042c-3.945,0 -7.37,3.391 -7.37,8.754ZM72.324,122.704c0,-4.186 2.526,-7.404 5.848,-7.404c1.626,0 3.079,0.588 4.844,2.145l0,9.861c-1.765,1.765 -3.391,2.734 -5.225,2.734c-3.529,0 -5.467,-2.941 -5.467,-7.336Z" style="fill:#130d24;fill-rule:nonzero;"/><path d="M87.375,122.704c0,5.433 3.426,8.685 7.682,8.685c2.422,0 3.91,-0.83 5.225,-1.626l-0.623,-1.177c-1.246,0.9 -2.665,1.488 -4.464,1.488c-3.737,0 -6.193,-3.01 -6.262,-7.197l11.971,0c0.07,-0.415 0.07,-0.83 0.07,-1.245c0,-4.879 -2.423,-7.682 -6.367,-7.682c-3.702,0 -7.232,3.322 -7.232,8.754ZM88.933,121.701c0.346,-3.979 2.871,-6.436 5.709,-6.436c2.975,0 4.878,2.18 4.878,6.436l-10.587,0Z" style="fill:#130d24;fill-rule:nonzero;"/><path d="M107.202,130.974l1.799,0l6.159,-16.608l-1.557,0l-3.737,10.414c-0.554,1.592 -1.142,3.253 -1.696,4.775l-0.138,0c-0.519,-1.522 -1.142,-3.183 -1.661,-4.775l-3.737,-10.414l-1.66,0l6.228,16.608Z" style="fill:#130d24;fill-rule:nonzero;"/></g></g></g></svg>