<svg width="100%" height="100%" viewBox="0 0 108 112" version="1.1" xmlns="http://www.w3.org/2000/svg" xmlns:xlink="http://www.w3.org/1999/xlink" xml:space="preserve" style="fill-rule:evenodd;clip-rule:evenodd;stroke-linecap:round;stroke-linejoin:round;stroke-miterlimit:1.41421;"><g id="Layer_x0020_3"><g><path d="M80.44,80.11c0.685,-5.707 0.48,-6.544 4.731,-5.62l1.079,0.095c3.269,0.149 7.545,-0.526 10.057,-1.693c5.408,-2.509 8.614,-6.698 3.282,-5.597c-12.163,2.509 -12.999,-1.61 -12.999,-1.61c12.843,-19.056 18.212,-43.246 13.578,-49.167c-12.64,-16.151 -34.52,-8.514 -34.886,-8.315l-0.116,0.021c-2.403,-0.499 -5.093,-0.796 -8.114,-0.845c-5.504,-0.091 -9.681,1.443 -12.849,3.846c0,0 -39.032,-16.081 -37.216,20.223c0.386,7.722 11.07,58.437 23.812,43.119c4.657,-5.602 9.158,-10.338 9.158,-10.338c2.235,1.485 4.911,2.243 7.717,1.97l0.217,-0.185c-0.068,0.696 -0.038,1.376 0.087,2.181c-3.282,3.668 -2.318,4.312 -8.881,5.663c-6.639,1.368 -2.738,3.805 -0.192,4.441c3.087,0.773 10.23,1.866 15.057,-4.89l-0.192,0.771c1.288,1.03 1.201,7.404 1.383,11.958c0.183,4.555 0.488,8.805 1.416,11.311c0.929,2.505 2.024,8.959 10.649,7.111c7.209,-1.545 12.72,-3.769 13.222,-24.45" style="fill:#000;fill-rule:nonzero;"/><path d="M101.356,62.597l0.179,0.008l0.183,0.013l0.186,0.018l0.192,0.023l0.196,0.029l0.201,0.037l0.208,0.044l0.213,0.054l0.22,0.064l0.226,0.076l0.233,0.089l0.238,0.104l0.244,0.12l0.248,0.138l0.25,0.158l0.251,0.179l0.249,0.202l0.243,0.223l0.234,0.245l0.223,0.267l0.206,0.284l0.188,0.301l0.166,0.314l0.143,0.322l0.118,0.325l0.094,0.326l0.071,0.322l0.049,0.315l0.028,0.307l0.011,0.295l-0.006,0.282l-0.019,0.269l-0.031,0.256l-0.04,0.242l-0.048,0.23l-0.056,0.218l-0.06,0.206l-0.065,0.196l-0.069,0.186l-0.072,0.178l-0.074,0.169l-0.076,0.161l-0.078,0.154l-0.079,0.149l-0.081,0.143l-0.082,0.138l-0.083,0.133l-0.084,0.129l-0.085,0.125l-0.085,0.122l-0.087,0.119l-0.087,0.116l-0.088,0.114l-0.089,0.111l-0.09,0.109l-0.091,0.107l-0.091,0.106l-0.093,0.104l-0.094,0.102l-0.094,0.102l-0.096,0.1l-0.096,0.099l-0.098,0.097l-0.098,0.097l-0.1,0.096l-0.101,0.096l-0.102,0.094l-0.103,0.094l-0.104,0.093l-0.105,0.093l-0.106,0.091l-0.108,0.092l-0.108,0.091l-0.11,0.09l-0.111,0.09l-0.112,0.089l-0.113,0.089l-0.114,0.088l-0.116,0.089l-0.117,0.087l-0.118,0.088l-0.119,0.086l-0.12,0.087l-0.122,0.086l-0.122,0.085l-0.124,0.085l-0.125,0.085l-0.126,0.085l-0.128,0.084l-0.128,0.083l-0.13,0.083l-0.131,0.083l-0.132,0.082l-0.133,0.082l-0.134,0.081l-0.135,0.081l-0.137,0.08l-0.137,0.08l-0.139,0.079l-0.14,0.079l-0.141,0.078l-0.142,0.078l-0.143,0.077l-0.144,0.077l-0.146,0.076l-0.146,0.075l-0.147,0.075l-0.149,0.074l-0.149,0.074l-0.151,0.072l-0.151,0.072l-0.159,0.075l-0.165,0.075l-0.173,0.076l-0.175,0.075l-0.175,0.072l-0.176,0.07l-0.176,0.068l-0.178,0.067l-0.178,0.065l-0.179,0.062l-0.18,0.062l-0.18,0.059l-0.182,0.059l-0.182,0.056l-0.184,0.055l-0.184,0.054l-0.184,0.053l-0.186,0.051l-0.187,0.05l-0.187,0.048l-0.188,0.047l-0.189,0.046l-0.189,0.045l-0.19,0.043l-0.191,0.043l-0.191,0.041l-0.192,0.04l-0.193,0.038l-0.193,0.038l-0.194,0.036l-0.194,0.035l-0.195,0.034l-0.195,0.033l-0.195,0.032l-0.196,0.03l-0.196,0.03l-0.196,0.028l-0.197,0.027l-0.197,0.026l-0.197,0.024l-0.197,0.024l-0.197,0.022l-0.197,0.021l-0.198,0.02l-0.197,0.019l-0.197,0.017l-0.197,0.017l-0.197,0.015l-0.197,0.014l-0.197,0.012l-0.196,0.012l-0.196,0.01l-0.196,0.009l-0.196,0.007l-0.195,0.006l-0.195,0.005l-0.195,0.004l-0.194,0.002l-0.194,0.001l-0.193,-0.001l-0.193,-0.002l-0.192,-0.003l-0.192,-0.005l-0.191,-0.006l-0.277,-0.012l-0.839,-0.073l-0.015,0.134l-0.054,0.461l-0.058,0.498l-0.038,0.319l-0.008,0.283l-0.015,0.494l-0.017,0.487l-0.019,0.482l-0.021,0.475l-0.022,0.47l-0.025,0.463l-0.026,0.458l-0.029,0.451l-0.03,0.446l-0.032,0.44l-0.035,0.435l-0.036,0.429l-0.038,0.423l-0.039,0.418l-0.042,0.412l-0.044,0.408l-0.045,0.402l-0.048,0.396l-0.049,0.392l-0.052,0.386l-0.053,0.382l-0.055,0.376l-0.057,0.372l-0.059,0.367l-0.061,0.362l-0.063,0.357l-0.065,0.353l-0.067,0.348l-0.069,0.343l-0.071,0.34l-0.074,0.334l-0.075,0.331l-0.077,0.326l-0.079,0.322l-0.082,0.318l-0.083,0.314l-0.086,0.31l-0.088,0.306l-0.09,0.302l-0.092,0.298l-0.095,0.294l-0.097,0.29l-0.099,0.287l-0.102,0.283l-0.103,0.279l-0.107,0.276l-0.108,0.272l-0.111,0.268l-0.114,0.266l-0.116,0.261l-0.118,0.258l-0.121,0.255l-0.124,0.251l-0.126,0.248l-0.125,0.237l-0.069,0.128l-0.066,0.12l-0.066,0.119l-0.068,0.118l-0.068,0.118l-0.068,0.116l-0.069,0.116l-0.07,0.114l-0.071,0.114l-0.071,0.113l-0.072,0.113l-0.072,0.111l-0.073,0.111l-0.074,0.109l-0.075,0.109l-0.075,0.108l-0.075,0.107l-0.077,0.106l-0.077,0.105l-0.078,0.104l-0.078,0.103l-0.079,0.103l-0.079,0.101l-0.086,0.108l-0.157,0.192l-0.164,0.195l-0.167,0.191l-0.169,0.187l-0.172,0.184l-0.173,0.179l-0.176,0.176l-0.178,0.172l-0.179,0.169l-0.182,0.164l-0.183,0.16l-0.185,0.157l-0.186,0.152l-0.188,0.149l-0.189,0.145l-0.19,0.141l-0.192,0.137l-0.192,0.133l-0.194,0.129l-0.194,0.126l-0.195,0.122l-0.195,0.118l-0.196,0.115l-0.197,0.111l-0.197,0.108l-0.197,0.104l-0.197,0.101l-0.197,0.097l-0.197,0.095l-0.197,0.091l-0.197,0.088l-0.197,0.086l-0.197,0.082l-0.196,0.08l-0.196,0.077l-0.195,0.075l-0.195,0.072l-0.194,0.069l-0.194,0.068l-0.193,0.065l-0.193,0.063l-0.192,0.061l-0.192,0.059l-0.19,0.057l-0.19,0.056l-0.19,0.054l-0.188,0.052l-0.188,0.051l-0.188,0.049l-0.186,0.048l-0.186,0.046l-0.185,0.046l-0.184,0.044l-0.187,0.045l-0.36,0.082l-0.362,0.081l-0.367,0.079l-0.245,0.051l-0.251,0.049l-0.249,0.046l-0.248,0.043l-0.247,0.038l-0.245,0.036l-0.243,0.032l-0.242,0.029l-0.241,0.025l-0.24,0.021l-0.238,0.019l-0.236,0.014l-0.236,0.012l-0.234,0.007l-0.233,0.004l-0.231,0.001l-0.23,-0.003l-0.229,-0.007l-0.228,-0.01l-0.226,-0.014l-0.225,-0.017l-0.223,-0.021l-0.222,-0.025l-0.22,-0.028l-0.219,-0.032l-0.218,-0.036l-0.215,-0.039l-0.215,-0.044l-0.212,-0.046l-0.21,-0.051l-0.209,-0.054l-0.207,-0.057l-0.204,-0.062l-0.203,-0.064l-0.201,-0.069l-0.198,-0.071l-0.196,-0.076l-0.193,-0.078l-0.191,-0.082l-0.189,-0.085l-0.186,-0.088l-0.183,-0.091l-0.18,-0.094l-0.178,-0.097l-0.175,-0.1l-0.171,-0.102l-0.169,-0.105l-0.166,-0.108l-0.162,-0.109l-0.16,-0.112l-0.156,-0.115l-0.153,-0.116l-0.15,-0.117l-0.147,-0.12l-0.143,-0.122l-0.14,-0.122l-0.137,-0.125l-0.134,-0.125l-0.131,-0.127l-0.127,-0.127l-0.124,-0.129l-0.122,-0.13l-0.118,-0.13l-0.115,-0.131l-0.112,-0.131l-0.109,-0.132l-0.106,-0.132l-0.103,-0.132l-0.1,-0.133l-0.098,-0.132l-0.095,-0.133l-0.092,-0.132l-0.09,-0.133l-0.087,-0.132l-0.085,-0.132l-0.082,-0.131l-0.08,-0.131l-0.077,-0.13l-0.076,-0.131l-0.073,-0.129l-0.071,-0.129l-0.069,-0.128l-0.066,-0.127l-0.065,-0.126l-0.063,-0.126l-0.061,-0.125l-0.06,-0.123l-0.057,-0.123l-0.056,-0.122l-0.058,-0.128l-0.1,-0.229l-0.097,-0.233l-0.092,-0.228l-0.086,-0.222l-0.082,-0.215l-0.076,-0.21l-0.072,-0.202l-0.068,-0.195l-0.065,-0.192l-0.114,-0.342l-0.102,-0.31l-0.089,-0.272l-0.037,-0.112l-0.034,-0.099l-0.03,-0.084l-0.035,-0.097l-0.053,-0.148l-0.062,-0.177l-0.059,-0.177l-0.057,-0.177l-0.054,-0.178l-0.053,-0.178l-0.051,-0.179l-0.049,-0.179l-0.047,-0.18l-0.045,-0.181l-0.044,-0.181l-0.043,-0.182l-0.041,-0.182l-0.039,-0.184l-0.039,-0.184l-0.037,-0.185l-0.036,-0.186l-0.035,-0.186l-0.033,-0.188l-0.033,-0.188l-0.032,-0.19l-0.03,-0.19l-0.03,-0.191l-0.029,-0.192l-0.028,-0.193l-0.027,-0.194l-0.026,-0.195l-0.025,-0.195l-0.025,-0.197l-0.024,-0.202l-0.045,-0.393l-0.043,-0.401l-0.04,-0.404l-0.038,-0.408l-0.036,-0.411l-0.033,-0.414l-0.032,-0.417l-0.029,-0.419l-0.028,-0.422l-0.026,-0.424l-0.025,-0.427l-0.023,-0.428l-0.022,-0.43l-0.021,-0.432l-0.02,-0.433l-0.019,-0.434l-0.018,-0.438l-0.017,-0.448l-0.015,-0.456l-0.015,-0.46l-0.013,-0.464l-0.026,-0.929l-0.027,-0.932l-0.014,-0.459l-0.008,-0.214l-0.178,0.077l-0.183,0.077l-0.183,0.073l-0.183,0.072l-0.183,0.068l-0.183,0.067l-0.182,0.063l-0.182,0.062l-0.182,0.058l-0.181,0.057l-0.181,0.054l-0.181,0.052l-0.18,0.05l-0.179,0.047l-0.179,0.045l-0.179,0.043l-0.178,0.041l-0.177,0.038l-0.177,0.037l-0.176,0.035l-0.175,0.032l-0.175,0.031l-0.173,0.029l-0.173,0.027l-0.173,0.025l-0.171,0.024l-0.17,0.021l-0.17,0.02l-0.169,0.018l-0.167,0.017l-0.167,0.015l-0.166,0.013l-0.165,0.012l-0.164,0.01l-0.163,0.009l-0.161,0.008l-0.161,0.006l-0.159,0.005l-0.159,0.003l-0.157,0.003l-0.157,0l-0.155,0l-0.154,-0.001l-0.152,-0.003l-0.152,-0.003l-0.15,-0.005l-0.149,-0.006l-0.148,-0.007l-0.147,-0.007l-0.145,-0.009l-0.144,-0.01l-0.15,-0.011l-0.273,-0.022l-0.276,-0.027l-0.271,-0.029l-0.264,-0.032l-0.259,-0.034l-0.253,-0.036l-0.247,-0.039l-0.24,-0.039l-0.234,-0.042l-0.228,-0.042l-0.221,-0.043l-0.215,-0.044l-0.207,-0.045l-0.2,-0.044l-0.193,-0.045l-0.185,-0.044l-0.189,-0.047l-0.182,-0.047l-0.192,-0.053l-0.191,-0.056l-0.19,-0.059l-0.191,-0.062l-0.19,-0.066l-0.19,-0.068l-0.19,-0.072l-0.19,-0.075l-0.19,-0.078l-0.19,-0.082l-0.191,-0.086l-0.19,-0.089l-0.191,-0.094l-0.192,-0.098l-0.191,-0.102l-0.193,-0.108l-0.193,-0.113l-0.194,-0.12l-0.183,-0.118l-0.108,-0.073l-0.098,-0.068l-0.099,-0.07l-0.098,-0.072l-0.099,-0.074l-0.1,-0.077l-0.099,-0.08l-0.1,-0.082l-0.101,-0.086l-0.101,-0.089l-0.101,-0.092l-0.102,-0.097l-0.102,-0.1l-0.102,-0.105l-0.103,-0.11l-0.102,-0.114l-0.103,-0.121l-0.02,-0.024l-0.069,0.057l-0.113,0.091l-0.114,0.091l-0.115,0.089l-0.115,0.087l-0.117,0.087l-0.118,0.084l-0.118,0.084l-0.12,0.081l-0.121,0.081l-0.122,0.079l-0.123,0.077l-0.124,0.075l-0.124,0.074l-0.127,0.073l-0.127,0.071l-0.128,0.069l-0.129,0.067l-0.13,0.065l-0.132,0.064l-0.132,0.062l-0.133,0.06l-0.135,0.058l-0.135,0.056l-0.136,0.054l-0.138,0.052l-0.138,0.049l-0.139,0.048l-0.14,0.046l-0.14,0.043l-0.142,0.041l-0.142,0.039l-0.144,0.037l-0.143,0.034l-0.144,0.032l-0.145,0.03l-0.145,0.027l-0.146,0.025l-0.146,0.022l-0.147,0.02l-0.146,0.017l-0.147,0.015l-0.147,0.013l-0.147,0.01l-0.147,0.007l-0.147,0.005l-0.147,0.003l-0.146,0l-0.147,-0.003l-0.146,-0.004l-0.145,-0.008l-0.145,-0.009l-0.145,-0.012l-0.144,-0.015l-0.144,-0.016l-0.143,-0.019l-0.142,-0.022l-0.141,-0.023l-0.141,-0.026l-0.14,-0.027l-0.139,-0.03l-0.137,-0.032l-0.137,-0.034l-0.136,-0.036l-0.135,-0.038l-0.134,-0.039l-0.133,-0.042l-0.131,-0.043l-0.131,-0.045l-0.13,-0.047l-0.128,-0.048l-0.127,-0.05l-0.126,-0.052l-0.125,-0.053l-0.124,-0.054l-0.122,-0.056l-0.122,-0.058l-0.12,-0.059l-0.119,-0.06l-0.118,-0.061l-0.117,-0.062l-0.116,-0.064l-0.114,-0.065l-0.114,-0.066l-0.112,-0.068l-0.111,-0.068l-0.111,-0.069l-0.109,-0.071l-0.108,-0.071l-0.107,-0.073l-0.106,-0.073l-0.105,-0.074l-0.105,-0.075l-0.103,-0.077l-0.102,-0.077l-0.101,-0.077l-0.101,-0.079l-0.099,-0.079l-0.099,-0.081l-0.098,-0.081l-0.097,-0.082l-0.096,-0.082l-0.102,-0.09l-0.181,-0.162l-0.186,-0.172l-0.182,-0.175l-0.18,-0.177l-0.177,-0.18l-0.174,-0.182l-0.172,-0.185l-0.17,-0.188l-0.167,-0.19l-0.165,-0.192l-0.164,-0.195l-0.161,-0.197l-0.159,-0.199l-0.158,-0.202l-0.155,-0.204l-0.155,-0.206l-0.152,-0.208l-0.151,-0.21l-0.149,-0.213l-0.148,-0.215l-0.147,-0.217l-0.145,-0.219l-0.144,-0.22l-0.143,-0.224l-0.141,-0.225l-0.14,-0.227l-0.14,-0.229l-0.137,-0.231l-0.137,-0.233l-0.136,-0.235l-0.135,-0.236l-0.134,-0.239l-0.132,-0.241l-0.132,-0.242l-0.131,-0.244l-0.13,-0.246l-0.129,-0.248l-0.128,-0.249l-0.127,-0.251l-0.126,-0.253l-0.126,-0.255l-0.124,-0.256l-0.124,-0.257l-0.123,-0.26l-0.122,-0.261l-0.122,-0.262l-0.12,-0.264l-0.12,-0.265l-0.119,-0.267l-0.119,-0.268l-0.117,-0.27l-0.117,-0.271l-0.116,-0.272l-0.116,-0.273l-0.114,-0.275l-0.114,-0.276l-0.113,-0.277l-0.113,-0.279l-0.111,-0.279l-0.111,-0.281l-0.111,-0.281l-0.109,-0.283l-0.109,-0.284l-0.109,-0.285l-0.107,-0.285l-0.107,-0.287l-0.106,-0.287l-0.106,-0.289l-0.105,-0.289l-0.104,-0.29l-0.103,-0.29l-0.103,-0.292l-0.102,-0.292l-0.101,-0.292l-0.101,-0.293l-0.1,-0.294l-0.099,-0.295l-0.099,-0.294l-0.099,-0.298l-0.193,-0.59l-0.191,-0.593l-0.188,-0.595l-0.186,-0.595l-0.183,-0.596l-0.18,-0.597l-0.178,-0.596l-0.174,-0.596l-0.172,-0.596l-0.169,-0.595l-0.167,-0.593l-0.163,-0.593l-0.161,-0.59l-0.157,-0.589l-0.155,-0.586l-0.152,-0.584l-0.149,-0.581l-0.147,-0.577l-0.143,-0.574l-0.14,-0.571l-0.138,-0.566l-0.134,-0.562l-0.131,-0.558l-0.129,-0.552l-0.125,-0.547l-0.122,-0.542l-0.12,-0.536l-0.116,-0.53l-0.113,-0.524l-0.11,-0.516l-0.106,-0.51l-0.104,-0.503l-0.1,-0.495l-0.098,-0.487l-0.094,-0.48l-0.09,-0.471l-0.088,-0.462l-0.084,-0.453l-0.081,-0.445l-0.078,-0.434l-0.074,-0.426l-0.071,-0.415l-0.068,-0.405l-0.064,-0.395l-0.061,-0.385l-0.057,-0.374l-0.054,-0.363l-0.051,-0.352l-0.047,-0.341l-0.044,-0.331l-0.04,-0.319l-0.037,-0.308l-0.034,-0.298l-0.029,-0.288l-0.027,-0.278l-0.022,-0.27l-0.019,-0.263l-0.014,-0.242l-0.012,-0.244l-0.01,-0.23l-0.009,-0.229l-0.008,-0.227l-0.007,-0.227l-0.006,-0.225l-0.005,-0.225l-0.004,-0.223l-0.003,-0.223l-0.003,-0.221l-0.001,-0.22l0,-0.22l0.001,-0.218l0.002,-0.218l0.003,-0.216l0.003,-0.216l0.005,-0.214l0.006,-0.213l0.007,-0.213l0.007,-0.211l0.009,-0.211l0.01,-0.209l0.01,-0.209l0.012,-0.207l0.012,-0.207l0.014,-0.206l0.014,-0.204l0.016,-0.204l0.016,-0.203l0.018,-0.202l0.018,-0.201l0.019,-0.199l0.021,-0.199l0.021,-0.199l0.022,-0.197l0.023,-0.196l0.024,-0.195l0.025,-0.194l0.026,-0.194l0.027,-0.192l0.028,-0.192l0.029,-0.191l0.03,-0.189l0.031,-0.189l0.031,-0.188l0.033,-0.187l0.034,-0.186l0.034,-0.185l0.036,-0.184l0.036,-0.184l0.038,-0.182l0.038,-0.182l0.04,-0.181l0.04,-0.179l0.041,-0.179l0.042,-0.178l0.043,-0.177l0.044,-0.176l0.045,-0.176l0.046,-0.174l0.047,-0.173l0.048,-0.173l0.049,-0.172l0.049,-0.171l0.051,-0.169l0.052,-0.169l0.052,-0.169l0.054,-0.167l0.054,-0.166l0.055,-0.166l0.056,-0.164l0.058,-0.164l0.058,-0.163l0.059,-0.161l0.06,-0.161l0.06,-0.16l0.062,-0.16l0.063,-0.158l0.063,-0.157l0.065,-0.157l0.065,-0.155l0.067,-0.155l0.067,-0.154l0.068,-0.152l0.069,-0.152l0.07,-0.151l0.071,-0.15l0.072,-0.15l0.072,-0.148l0.074,-0.147l0.074,-0.146l0.076,-0.146l0.076,-0.144l0.077,-0.144l0.078,-0.143l0.079,-0.141l0.079,-0.141l0.081,-0.14l0.081,-0.139l0.082,-0.138l0.083,-0.137l0.084,-0.136l0.085,-0.135l0.086,-0.134l0.086,-0.133l0.087,-0.132l0.088,-0.132l0.089,-0.13l0.09,-0.129l0.09,-0.128l0.091,-0.128l0.092,-0.126l0.093,-0.126l0.094,-0.124l0.094,-0.123l0.095,-0.123l0.096,-0.121l0.097,-0.12l0.097,-0.12l0.098,-0.118l0.099,-0.118l0.099,-0.116l0.1,-0.115l0.101,-0.115l0.102,-0.113l0.102,-0.113l0.103,-0.111l0.104,-0.11l0.104,-0.11l0.105,-0.108l0.105,-0.107l0.106,-0.107l0.107,-0.105l0.108,-0.104l0.108,-0.103l0.108,-0.102l0.109,-0.102l0.11,-0.1l0.111,-0.099l0.11,-0.098l0.112,-0.097l0.112,-0.096l0.113,-0.095l0.113,-0.095l0.113,-0.093l0.114,-0.092l0.115,-0.091l0.115,-0.09l0.115,-0.089l0.117,-0.088l0.116,-0.087l0.117,-0.086l0.117,-0.085l0.118,-0.084l0.118,-0.083l0.119,-0.082l0.119,-0.081l0.12,-0.08l0.119,-0.079l0.121,-0.078l0.12,-0.077l0.121,-0.076l0.122,-0.075l0.121,-0.074l0.122,-0.073l0.123,-0.073l0.122,-0.071l0.123,-0.07l0.124,-0.07l0.123,-0.068l0.124,-0.068l0.131,-0.07l0.242,-0.126l0.25,-0.127l0.252,-0.123l0.252,-0.12l0.253,-0.115l0.253,-0.113l0.255,-0.109l0.255,-0.105l0.256,-0.102l0.257,-0.099l0.257,-0.095l0.257,-0.092l0.258,-0.089l0.259,-0.086l0.259,-0.082l0.259,-0.08l0.259,-0.076l0.26,-0.074l0.26,-0.07l0.26,-0.068l0.261,-0.065l0.26,-0.062l0.261,-0.059l0.26,-0.057l0.261,-0.054l0.261,-0.051l0.261,-0.048l0.26,-0.047l0.261,-0.043l0.26,-0.042l0.26,-0.038l0.261,-0.037l0.26,-0.034l0.259,-0.032l0.26,-0.029l0.259,-0.028l0.259,-0.025l0.259,-0.023l0.258,-0.021l0.258,-0.019l0.258,-0.017l0.257,-0.015l0.256,-0.013l0.257,-0.011l0.256,-0.009l0.255,-0.007l0.255,-0.006l0.254,-0.004l0.254,-0.002l0.253,0l0.252,0.001l0.252,0.003l0.252,0.004l0.25,0.006l0.25,0.008l0.249,0.009l0.249,0.011l0.247,0.012l0.247,0.013l0.247,0.015l0.245,0.016l0.244,0.017l0.244,0.019l0.243,0.02l0.241,0.021l0.241,0.022l0.24,0.024l0.239,0.024l0.238,0.026l0.237,0.027l0.236,0.028l0.235,0.028l0.233,0.03l0.233,0.031l0.231,0.032l0.231,0.033l0.229,0.033l0.228,0.034l0.226,0.036l0.226,0.036l0.224,0.036l0.223,0.038l0.221,0.038l0.221,0.039l0.218,0.04l0.218,0.04l0.216,0.041l0.214,0.041l0.213,0.042l0.216,0.043l0.414,0.086l0.413,0.088l0.406,0.09l0.399,0.091l0.392,0.093l0.386,0.093l0.378,0.094l0.37,0.095l0.363,0.095l0.355,0.096l0.347,0.095l0.339,0.095l0.33,0.094l0.321,0.094l0.313,0.094l0.303,0.092l0.294,0.091l0.285,0.089l0.274,0.088l0.265,0.086l0.255,0.084l0.244,0.081l0.044,0.015l0.03,-0.018l0.208,-0.121l0.209,-0.119l0.212,-0.118l0.214,-0.115l0.215,-0.114l0.218,-0.112l0.219,-0.109l0.221,-0.108l0.223,-0.105l0.225,-0.104l0.227,-0.101l0.229,-0.099l0.231,-0.097l0.232,-0.095l0.234,-0.093l0.236,-0.09l0.238,-0.088l0.24,-0.086l0.242,-0.084l0.243,-0.081l0.245,-0.079l0.247,-0.076l0.249,-0.075l0.25,-0.071l0.252,-0.07l0.254,-0.067l0.256,-0.064l0.257,-0.062l0.259,-0.06l0.261,-0.057l0.262,-0.054l0.264,-0.052l0.266,-0.05l0.268,-0.047l0.269,-0.044l0.271,-0.042l0.272,-0.039l0.274,-0.037l0.276,-0.034l0.277,-0.031l0.279,-0.029l0.281,-0.026l0.282,-0.023l0.284,-0.021l0.285,-0.018l0.287,-0.016l0.289,-0.013l0.29,-0.01l0.292,-0.007l0.294,-0.005l0.295,-0.002l0.297,0.001l0.293,0.004l0.31,0.006l0.304,0.007l0.303,0.009l0.301,0.01l0.299,0.012l0.297,0.014l0.296,0.015l0.294,0.017l0.293,0.018l0.29,0.02l0.289,0.021l0.287,0.023l0.286,0.024l0.284,0.026l0.282,0.027l0.28,0.029l0.279,0.031l0.277,0.032l0.276,0.033l0.274,0.035l0.272,0.036l0.271,0.038l0.269,0.039l0.268,0.04l0.266,0.042l0.264,0.044l0.263,0.045l0.087,0.015l0.194,-0.058l0.3,-0.089l0.321,-0.09l0.178,-0.049l0.178,-0.048l0.185,-0.049l0.191,-0.05l0.197,-0.05l0.202,-0.05l0.209,-0.051l0.214,-0.051l0.221,-0.052l0.225,-0.051l0.232,-0.051l0.236,-0.052l0.243,-0.051l0.247,-0.051l0.253,-0.05l0.258,-0.05l0.263,-0.049l0.268,-0.049l0.273,-0.048l0.278,-0.047l0.283,-0.046l0.287,-0.045l0.292,-0.044l0.297,-0.043l0.301,-0.041l0.305,-0.04l0.31,-0.039l0.314,-0.037l0.318,-0.035l0.323,-0.033l0.326,-0.031l0.33,-0.03l0.334,-0.027l0.338,-0.025l0.342,-0.023l0.345,-0.02l0.349,-0.018l0.352,-0.015l0.356,-0.012l0.359,-0.01l0.362,-0.007l0.366,-0.003l0.368,-0.001l0.366,0.003l0.192,0.003l0.188,0.003l0.188,0.005l0.189,0.005l0.19,0.006l0.19,0.007l0.191,0.008l0.192,0.009l0.192,0.01l0.193,0.011l0.193,0.011l0.195,0.013l0.194,0.014l0.196,0.015l0.196,0.016l0.196,0.017l0.197,0.017l0.198,0.02l0.198,0.02l0.199,0.021l0.199,0.022l0.2,0.024l0.2,0.024l0.201,0.026l0.201,0.027l0.202,0.028l0.202,0.03l0.203,0.03l0.203,0.032l0.203,0.033l0.204,0.034l0.205,0.036l0.204,0.037l0.205,0.038l0.206,0.039l0.205,0.041l0.206,0.042l0.207,0.044l0.207,0.045l0.207,0.046l0.207,0.048l0.208,0.049l0.207,0.051l0.209,0.052l0.208,0.053l0.209,0.055l0.208,0.057l0.209,0.058l0.209,0.059l0.21,0.061l0.209,0.063l0.21,0.064l0.21,0.066l0.21,0.068l0.21,0.069l0.21,0.07l0.21,0.073l0.21,0.073l0.21,0.076l0.211,0.077l0.21,0.079l0.21,0.081l0.21,0.083l0.211,0.084l0.21,0.086l0.21,0.088l0.21,0.089l0.21,0.091l0.21,0.094l0.209,0.095l0.21,0.096l0.209,0.099l0.209,0.101l0.209,0.102l0.209,0.104l0.209,0.106l0.208,0.108l0.208,0.111l0.208,0.112l0.207,0.113l0.207,0.116l0.207,0.118l0.207,0.12l0.206,0.122l0.205,0.124l0.206,0.126l0.205,0.128l0.204,0.13l0.204,0.132l0.203,0.134l0.203,0.136l0.203,0.138l0.202,0.14l0.201,0.143l0.201,0.144l0.2,0.147l0.199,0.149l0.199,0.151l0.199,0.153l0.197,0.155l0.197,0.157l0.197,0.16l0.195,0.161l0.195,0.164l0.194,0.166l0.193,0.168l0.193,0.171l0.191,0.173l0.191,0.174l0.19,0.177l0.189,0.18l0.189,0.181l0.187,0.184l0.186,0.186l0.186,0.188l0.184,0.191l0.184,0.193l0.183,0.195l0.181,0.197l0.181,0.199l0.179,0.202l0.179,0.204l0.178,0.207l0.176,0.209l0.175,0.21l0.174,0.214l0.174,0.215l0.18,0.228l0.1,0.131l0.104,0.142l0.101,0.143l0.098,0.144l0.095,0.145l0.092,0.146l0.089,0.147l0.086,0.148l0.083,0.148l0.08,0.15l0.077,0.149l0.075,0.15l0.072,0.151l0.07,0.152l0.067,0.152l0.065,0.152l0.063,0.154l0.061,0.153l0.058,0.154l0.057,0.154l0.054,0.155l0.052,0.156l0.051,0.156l0.048,0.156l0.047,0.157l0.045,0.158l0.043,0.158l0.042,0.158l0.04,0.159l0.038,0.16l0.037,0.16l0.036,0.161l0.033,0.161l0.033,0.162l0.031,0.162l0.029,0.163l0.028,0.164l0.027,0.164l0.026,0.165l0.024,0.166l0.023,0.166l0.021,0.166l0.021,0.168l0.019,0.168l0.018,0.169l0.017,0.169l0.015,0.171l0.015,0.17l0.013,0.172l0.013,0.172l0.011,0.173l0.01,0.174l0.009,0.175l0.008,0.175l0.006,0.176l0.006,0.176l0.005,0.178l0.004,0.178l0.002,0.179l0.002,0.18l0,0.18l0,0.181l-0.001,0.182l-0.003,0.183l-0.003,0.184l-0.004,0.184l-0.005,0.185l-0.007,0.186l-0.007,0.186l-0.008,0.188l-0.009,0.188l-0.01,0.189l-0.011,0.19l-0.012,0.19l-0.012,0.191l-0.014,0.192l-0.015,0.193l-0.015,0.194l-0.017,0.194l-0.018,0.2l-0.036,0.387l-0.041,0.396l-0.045,0.398l-0.048,0.402l-0.052,0.404l-0.055,0.407l-0.058,0.411l-0.062,0.413l-0.066,0.416l-0.069,0.418l-0.072,0.422l-0.076,0.424l-0.079,0.427l-0.083,0.429l-0.085,0.432l-0.09,0.435l-0.092,0.437l-0.096,0.44l-0.099,0.442l-0.103,0.444l-0.106,0.447l-0.109,0.449l-0.112,0.451l-0.116,0.454l-0.119,0.455l-0.122,0.458l-0.126,0.459l-0.129,0.462l-0.132,0.463l-0.135,0.466l-0.139,0.467l-0.141,0.469l-0.145,0.47l-0.148,0.472l-0.152,0.474l-0.154,0.475l-0.158,0.477l-0.161,0.478l-0.164,0.48l-0.167,0.48l-0.171,0.482l-0.174,0.483l-0.176,0.485l-0.18,0.485l-0.183,0.486l-0.187,0.487l-0.189,0.488l-0.192,0.489l-0.196,0.49l-0.199,0.49l-0.202,0.491l-0.205,0.492l-0.208,0.492l-0.211,0.492l-0.214,0.493l-0.218,0.494l-0.22,0.493l-0.224,0.494l-0.227,0.494l-0.229,0.493l-0.233,0.494l-0.236,0.494l-0.239,0.494l-0.242,0.494l-0.246,0.493l-0.248,0.493l-0.251,0.493l-0.254,0.492l-0.258,0.492l-0.26,0.491l-0.264,0.491l-0.266,0.49l-0.27,0.489l-0.272,0.488l-0.276,0.488l-0.277,0.484l-0.142,0.246l-0.141,0.242l-0.142,0.243l-0.143,0.242l-0.082,0.138l0.072,-0.002l0.153,-0.005l0.157,-0.007l0.161,-0.009l0.165,-0.01l0.169,-0.011l0.173,-0.013l0.177,-0.015l0.181,-0.016l0.186,-0.018l0.189,-0.02l0.194,-0.021l0.198,-0.024l0.203,-0.025l0.206,-0.027l0.211,-0.029l0.215,-0.031l0.22,-0.033l0.224,-0.035l0.228,-0.037l0.232,-0.039l0.237,-0.042l0.242,-0.043l0.246,-0.046l0.25,-0.048l0.255,-0.051l0.276,-0.056l0.151,-0.03l0.168,-0.032l0.166,-0.03l0.165,-0.028l0.166,-0.026l0.164,-0.023l0.165,-0.021l0.164,-0.02l0.165,-0.016l0.166,-0.015l0.167,-0.011l0.167,-0.009l0.169,-0.006l0.172,-0.003l0.173,0l0.176,0.004ZM42.595,60.551l0.068,0.043l0.069,0.042l0.068,0.042l0.069,0.041l0.07,0.039l0.07,0.04l0.07,0.038l0.07,0.037l0.07,0.037l0.071,0.036l0.071,0.035l0.071,0.035l0.071,0.033l0.072,0.033l0.072,0.032l0.072,0.032l0.072,0.03l0.073,0.03l0.073,0.029l0.072,0.028l0.074,0.027l0.073,0.027l0.073,0.025l0.074,0.025l0.074,0.024l0.074,0.024l0.074,0.022l0.075,0.022l0.074,0.021l0.075,0.02l0.075,0.019l0.075,0.018l0.075,0.018l0.076,0.017l0.076,0.016l0.075,0.015l0.076,0.014l0.077,0.014l0.076,0.012l0.076,0.012l0.077,0.011l0.077,0.011l0.077,0.009l0.077,0.008l0.078,0.008l0.077,0.007l0.002,0l2.836,-2.418l4.036,2.084l-0.456,5.131l-0.004,0.052l-0.003,0.051l-0.002,0.051l-0.001,0.052l0,0.053l0.001,0.056l0.002,0.059l0.003,0.061l0.004,0.066l0.006,0.07l0.007,0.074l0.009,0.08l0.01,0.085l0.013,0.091l0.05,0.336l1.123,-1.553l6.109,2.842l-1.141,4.575l0.008,0.024l0.039,0.118l0.038,0.118l0.035,0.116l0.034,0.115l0.035,0.126l0.057,0.215l0.054,0.224l0.05,0.224l0.047,0.222l0.042,0.222l0.04,0.222l0.037,0.222l0.035,0.223l0.032,0.224l0.03,0.224l0.028,0.226l0.027,0.226l0.025,0.228l0.023,0.229l0.022,0.23l0.021,0.232l0.019,0.233l0.018,0.233l0.017,0.235l0.017,0.237l0.015,0.237l0.014,0.238l0.014,0.242l0.024,0.476l0.022,0.482l0.02,0.483l0.018,0.483l0.016,0.481l0.015,0.481l0.027,0.945l0.026,0.926l0.013,0.449l0.014,0.439l0.015,0.426l0.015,0.417l0.017,0.414l0.018,0.414l0.019,0.41l0.02,0.407l0.02,0.402l0.022,0.398l0.023,0.393l0.024,0.388l0.025,0.383l0.026,0.377l0.028,0.37l0.03,0.365l0.031,0.357l0.032,0.35l0.034,0.342l0.036,0.334l0.038,0.331l0.019,0.155l0.019,0.157l0.02,0.155l0.021,0.152l0.021,0.15l0.021,0.147l0.022,0.145l0.022,0.142l0.022,0.14l0.023,0.136l0.023,0.134l0.024,0.13l0.023,0.128l0.024,0.124l0.025,0.121l0.024,0.118l0.025,0.115l0.025,0.111l0.025,0.107l0.025,0.104l0.026,0.1l0.025,0.096l0.025,0.092l0.025,0.088l0.025,0.084l0.024,0.079l0.024,0.075l0.023,0.071l0.023,0.065l0.033,0.09l0.052,0.144l0.059,0.167l0.055,0.163l0.054,0.16l0.098,0.299l0.096,0.294l0.096,0.29l0.046,0.134l0.047,0.136l0.048,0.133l0.047,0.131l0.049,0.128l0.048,0.125l0.049,0.122l0.05,0.118l0.054,0.124l0.022,0.048l0.025,0.056l0.026,0.054l0.025,0.053l0.026,0.053l0.026,0.051l0.025,0.05l0.026,0.049l0.026,0.049l0.026,0.047l0.026,0.045l0.026,0.045l0.026,0.044l0.026,0.042l0.025,0.041l0.026,0.04l0.026,0.039l0.025,0.038l0.026,0.036l0.025,0.035l0.025,0.035l0.025,0.033l0.025,0.031l0.024,0.031l0.025,0.03l0.024,0.028l0.024,0.027l0.024,0.027l0.023,0.025l0.024,0.024l0.023,0.024l0.023,0.022l0.023,0.022l0.023,0.02l0.023,0.021l0.023,0.019l0.023,0.018l0.023,0.019l0.023,0.017l0.023,0.017l0.024,0.016l0.023,0.016l0.025,0.016l0.025,0.016l0.025,0.015l0.026,0.014l0.026,0.015l0.028,0.014l0.028,0.015l0.03,0.014l0.031,0.013l0.032,0.014l0.034,0.014l0.035,0.013l0.037,0.014l0.038,0.013l0.041,0.013l0.042,0.013l0.045,0.012l0.047,0.012l0.05,0.012l0.052,0.011l0.054,0.011l0.057,0.011l0.06,0.01l0.063,0.009l0.066,0.008l0.069,0.008l0.072,0.007l0.075,0.006l0.079,0.005l0.082,0.003l0.085,0.003l0.089,0.001l0.093,0l0.096,-0.002l0.099,-0.003l0.103,-0.005l0.107,-0.007l0.111,-0.008l0.114,-0.011l0.118,-0.012l0.122,-0.014l0.126,-0.017l0.13,-0.019l0.133,-0.021l0.138,-0.023l0.141,-0.026l0.145,-0.029l0.157,-0.032l0.306,-0.067l0.306,-0.068l0.303,-0.07l0.142,-0.033l0.144,-0.035l0.142,-0.035l0.139,-0.035l0.138,-0.035l0.135,-0.035l0.133,-0.036l0.13,-0.037l0.129,-0.036l0.126,-0.037l0.124,-0.037l0.122,-0.038l0.12,-0.038l0.117,-0.038l0.115,-0.039l0.113,-0.039l0.111,-0.04l0.108,-0.04l0.107,-0.041l0.104,-0.041l0.102,-0.041l0.1,-0.042l0.098,-0.043l0.096,-0.043l0.094,-0.043l0.092,-0.044l0.091,-0.045l0.088,-0.045l0.087,-0.046l0.085,-0.047l0.083,-0.047l0.082,-0.048l0.081,-0.049l0.079,-0.049l0.078,-0.05l0.076,-0.052l0.076,-0.052l0.074,-0.053l0.074,-0.055l0.072,-0.055l0.072,-0.057l0.071,-0.058l0.07,-0.06l0.07,-0.061l0.07,-0.063l0.069,-0.065l0.069,-0.066l0.069,-0.069l0.068,-0.071l0.068,-0.073l0.069,-0.076l0.068,-0.078l0.068,-0.08l0.074,-0.091l0.028,-0.036l0.035,-0.043l0.034,-0.045l0.034,-0.045l0.034,-0.046l0.034,-0.047l0.035,-0.047l0.034,-0.049l0.034,-0.049l0.035,-0.05l0.034,-0.051l0.035,-0.052l0.034,-0.053l0.035,-0.054l0.034,-0.055l0.035,-0.056l0.034,-0.057l0.035,-0.058l0.035,-0.059l0.034,-0.059l0.035,-0.061l0.035,-0.062l0.034,-0.063l0.031,-0.057l0.073,-0.139l0.069,-0.136l0.069,-0.141l0.069,-0.145l0.069,-0.15l0.069,-0.155l0.069,-0.16l0.068,-0.165l0.067,-0.17l0.068,-0.175l0.067,-0.18l0.067,-0.186l0.066,-0.191l0.065,-0.196l0.065,-0.202l0.064,-0.207l0.064,-0.213l0.063,-0.219l0.062,-0.224l0.061,-0.23l0.06,-0.235l0.06,-0.242l0.058,-0.247l0.058,-0.254l0.057,-0.259l0.055,-0.265l0.055,-0.271l0.053,-0.278l0.052,-0.283l0.051,-0.29l0.05,-0.296l0.049,-0.301l0.047,-0.309l0.046,-0.314l0.045,-0.321l0.044,-0.327l0.042,-0.334l0.04,-0.34l0.04,-0.347l0.038,-0.353l0.036,-0.359l0.035,-0.367l0.033,-0.372l0.032,-0.38l0.03,-0.386l0.029,-0.393l0.027,-0.4l0.026,-0.406l0.024,-0.414l0.022,-0.42l0.021,-0.427l0.019,-0.435l0.017,-0.441l0.016,-0.448l0.014,-0.456l0.012,-0.471l4.518,0.119l-4.488,-0.533l0.062,-0.516l0.057,-0.489l0.054,-0.469l0.054,-0.453l0.053,-0.433l0.028,-0.218l0.028,-0.212l0.029,-0.21l0.03,-0.209l0.032,-0.207l0.033,-0.206l0.035,-0.207l0.038,-0.207l0.041,-0.209l0.045,-0.211l0.048,-0.213l0.054,-0.216l0.056,-0.208l0.036,-0.124l0.034,-0.114l0.036,-0.115l0.039,-0.116l0.041,-0.119l0.044,-0.119l0.046,-0.122l0.049,-0.123l0.053,-0.125l0.056,-0.126l0.06,-0.128l0.064,-0.13l0.068,-0.131l0.073,-0.133l0.077,-0.134l0.082,-0.135l0.088,-0.136l0.093,-0.137l0.098,-0.136l0.105,-0.136l0.109,-0.136l0.116,-0.135l0.122,-0.133l0.127,-0.131l0.133,-0.129l0.137,-0.125l0.143,-0.122l0.148,-0.118l0.151,-0.113l0.156,-0.109l0.158,-0.103l0.161,-0.097l0.163,-0.092l0.165,-0.086l0.165,-0.08l0.166,-0.074l0.166,-0.068l0.165,-0.062l0.164,-0.056l0.163,-0.051l0.16,-0.045l0.159,-0.041l0.157,-0.036l0.154,-0.031l0.152,-0.027l0.148,-0.023l0.147,-0.02l0.143,-0.016l0.141,-0.013l0.138,-0.01l0.136,-0.007l0.133,-0.005l0.13,-0.003l0.129,-0.001l0.126,0.002l0.124,0.003l0.122,0.004l0.121,0.006l0.118,0.007l0.129,0.01l0.178,0.016l-0.087,-0.09l-0.085,-0.091l-0.082,-0.091l-0.079,-0.091l-0.089,-0.106l-0.135,-0.168l-0.137,-0.183l-0.128,-0.183l-0.117,-0.18l-0.109,-0.179l-0.099,-0.176l-0.09,-0.171l-0.081,-0.168l-0.074,-0.163l-0.065,-0.157l-0.058,-0.152l-0.051,-0.145l-0.052,-0.16l-0.059,-0.209l-0.478,-2.03l1.246,-1.856l0.142,-0.212l0.141,-0.213l0.14,-0.214l0.14,-0.214l0.14,-0.214l0.138,-0.215l0.138,-0.215l0.138,-0.216l0.137,-0.216l0.136,-0.216l0.136,-0.217l0.134,-0.218l0.135,-0.217l0.133,-0.218l0.133,-0.219l0.133,-0.219l0.132,-0.219l0.131,-0.22l0.13,-0.219l0.13,-0.221l0.129,-0.22l0.129,-0.221l0.126,-0.218l0.255,-0.446l0.251,-0.445l0.249,-0.445l0.246,-0.446l0.243,-0.447l0.241,-0.448l0.237,-0.449l0.236,-0.449l0.232,-0.45l0.23,-0.45l0.227,-0.451l0.224,-0.451l0.221,-0.452l0.219,-0.452l0.216,-0.452l0.213,-0.452l0.211,-0.452l0.207,-0.452l0.205,-0.452l0.202,-0.452l0.199,-0.452l0.196,-0.451l0.193,-0.451l0.191,-0.45l0.187,-0.45l0.185,-0.449l0.182,-0.448l0.179,-0.448l0.176,-0.447l0.173,-0.446l0.17,-0.444l0.167,-0.444l0.164,-0.443l0.161,-0.441l0.158,-0.441l0.155,-0.438l0.153,-0.438l0.149,-0.436l0.146,-0.434l0.143,-0.433l0.14,-0.43l0.137,-0.43l0.134,-0.427l0.131,-0.425l0.128,-0.423l0.125,-0.421l0.122,-0.419l0.119,-0.416l0.115,-0.414l0.113,-0.412l0.109,-0.409l0.106,-0.407l0.103,-0.404l0.1,-0.401l0.097,-0.398l0.094,-0.395l0.09,-0.392l0.088,-0.389l0.084,-0.386l0.081,-0.383l0.078,-0.379l0.074,-0.376l0.072,-0.372l0.068,-0.369l0.065,-0.365l0.062,-0.361l0.059,-0.357l0.056,-0.353l0.052,-0.349l0.049,-0.345l0.046,-0.34l0.043,-0.336l0.04,-0.332l0.037,-0.327l0.033,-0.322l0.031,-0.322l0.013,-0.152l0.013,-0.155l0.013,-0.155l0.011,-0.152l0.011,-0.152l0.01,-0.15l0.009,-0.149l0.009,-0.148l0.008,-0.146l0.007,-0.145l0.006,-0.143l0.005,-0.142l0.005,-0.141l0.004,-0.139l0.003,-0.138l0.003,-0.136l0.001,-0.135l0.001,-0.133l0,-0.132l0,-0.13l-0.001,-0.128l-0.002,-0.127l-0.003,-0.125l-0.003,-0.124l-0.004,-0.122l-0.005,-0.12l-0.005,-0.119l-0.006,-0.116l-0.007,-0.116l-0.007,-0.113l-0.008,-0.111l-0.008,-0.11l-0.009,-0.108l-0.01,-0.106l-0.011,-0.104l-0.01,-0.103l-0.012,-0.1l-0.012,-0.098l-0.012,-0.097l-0.013,-0.094l-0.014,-0.093l-0.014,-0.09l-0.014,-0.088l-0.015,-0.086l-0.015,-0.084l-0.016,-0.082l-0.016,-0.08l-0.016,-0.077l-0.017,-0.075l-0.016,-0.073l-0.017,-0.071l-0.017,-0.068l-0.018,-0.066l-0.017,-0.063l-0.018,-0.062l-0.017,-0.058l-0.018,-0.057l-0.017,-0.053l-0.017,-0.052l-0.017,-0.048l-0.017,-0.047l-0.017,-0.044l-0.016,-0.041l-0.016,-0.038l-0.015,-0.037l-0.015,-0.033l-0.015,-0.031l-0.013,-0.028l-0.013,-0.026l-0.012,-0.024l-0.011,-0.02l-0.01,-0.019l-0.01,-0.015l-0.008,-0.013l-0.006,-0.011l-0.006,-0.009l-0.004,-0.006l-0.003,-0.004l-0.001,-0.002l-0.008,-0.01l-0.117,-0.148l-0.126,-0.156l-0.126,-0.155l-0.127,-0.152l-0.127,-0.151l-0.127,-0.148l-0.129,-0.147l-0.128,-0.145l-0.13,-0.142l-0.129,-0.141l-0.13,-0.139l-0.131,-0.137l-0.131,-0.136l-0.132,-0.133l-0.132,-0.132l-0.132,-0.13l-0.133,-0.128l-0.134,-0.127l-0.133,-0.124l-0.135,-0.123l-0.134,-0.122l-0.135,-0.119l-0.136,-0.118l-0.136,-0.116l-0.136,-0.115l-0.137,-0.113l-0.137,-0.112l-0.137,-0.109l-0.138,-0.109l-0.139,-0.106l-0.138,-0.106l-0.139,-0.103l-0.14,-0.102l-0.139,-0.101l-0.141,-0.099l-0.14,-0.098l-0.141,-0.096l-0.141,-0.095l-0.142,-0.093l-0.142,-0.092l-0.142,-0.091l-0.143,-0.089l-0.143,-0.087l-0.143,-0.087l-0.144,-0.085l-0.144,-0.083l-0.144,-0.082l-0.145,-0.081l-0.145,-0.08l-0.145,-0.078l-0.146,-0.077l-0.146,-0.076l-0.146,-0.075l-0.147,-0.073l-0.146,-0.072l-0.147,-0.07l-0.148,-0.07l-0.147,-0.068l-0.148,-0.067l-0.148,-0.066l-0.149,-0.064l-0.149,-0.064l-0.148,-0.062l-0.15,-0.061l-0.149,-0.06l-0.15,-0.058l-0.149,-0.058l-0.15,-0.056l-0.151,-0.056l-0.15,-0.054l-0.151,-0.053l-0.151,-0.052l-0.151,-0.05l-0.151,-0.05l-0.151,-0.049l-0.152,-0.047l-0.151,-0.047l-0.152,-0.045l-0.152,-0.044l-0.152,-0.044l-0.152,-0.042l-0.153,-0.041l-0.152,-0.04l-0.153,-0.04l-0.152,-0.038l-0.153,-0.037l-0.153,-0.036l-0.152,-0.035l-0.153,-0.034l-0.153,-0.034l-0.153,-0.032l-0.153,-0.031l-0.153,-0.03l-0.152,-0.03l-0.153,-0.028l-0.153,-0.028l-0.153,-0.027l-0.153,-0.025l-0.152,-0.025l-0.153,-0.024l-0.153,-0.023l-0.152,-0.022l-0.153,-0.021l-0.152,-0.021l-0.152,-0.019l-0.152,-0.019l-0.152,-0.018l-0.152,-0.017l-0.151,-0.016l-0.152,-0.015l-0.151,-0.015l-0.151,-0.014l-0.151,-0.013l-0.15,-0.012l-0.151,-0.011l-0.15,-0.011l-0.15,-0.01l-0.149,-0.009l-0.15,-0.008l-0.149,-0.008l-0.149,-0.007l-0.148,-0.006l-0.148,-0.005l-0.148,-0.005l-0.147,-0.004l-0.148,-0.004l-0.146,-0.003l-0.142,-0.002l-0.296,-0.002l-0.29,0.001l-0.288,0.002l-0.286,0.006l-0.284,0.007l-0.283,0.01l-0.28,0.012l-0.277,0.014l-0.276,0.017l-0.273,0.018l-0.27,0.02l-0.268,0.022l-0.265,0.023l-0.262,0.025l-0.259,0.027l-0.256,0.028l-0.253,0.03l-0.25,0.031l-0.247,0.032l-0.243,0.034l-0.239,0.034l-0.236,0.036l-0.232,0.036l-0.228,0.037l-0.225,0.038l-0.22,0.039l-0.216,0.039l-0.212,0.04l-0.208,0.04l-0.203,0.041l-0.199,0.041l-0.194,0.041l-0.189,0.041l-0.185,0.041l-0.18,0.041l-0.174,0.04l-0.17,0.041l-0.164,0.04l-0.159,0.039l-0.154,0.039l-0.148,0.039l-0.142,0.038l-0.137,0.036l-0.126,0.035l-0.248,0.07l-0.219,0.064l-0.192,0.059l-0.166,0.052l-0.136,0.044l-0.1,0.034l-0.372,0.178l-1.571,0.29l-1.073,-0.219l-0.2,-0.039l-0.201,-0.039l-0.203,-0.037l-0.204,-0.036l-0.207,-0.036l-0.209,-0.034l-0.21,-0.033l-0.212,-0.033l-0.214,-0.031l-0.216,-0.03l-0.218,-0.029l-0.22,-0.028l-0.222,-0.027l-0.224,-0.025l-0.225,-0.025l-0.228,-0.023l-0.23,-0.023l-0.231,-0.021l-0.234,-0.02l-0.236,-0.018l-0.237,-0.018l-0.24,-0.016l-0.242,-0.015l-0.244,-0.014l-0.246,-0.013l-0.247,-0.011l-0.25,-0.01l-0.253,-0.009l-0.254,-0.007l-0.256,-0.007l-0.255,-0.004l-0.22,-0.003l-0.214,-0.001l-0.211,0.002l-0.209,0.003l-0.207,0.005l-0.204,0.007l-0.203,0.009l-0.2,0.011l-0.198,0.013l-0.196,0.014l-0.194,0.016l-0.191,0.018l-0.19,0.02l-0.187,0.021l-0.186,0.023l-0.183,0.024l-0.181,0.026l-0.18,0.028l-0.177,0.029l-0.176,0.031l-0.173,0.032l-0.172,0.034l-0.17,0.035l-0.167,0.037l-0.167,0.038l-0.164,0.04l-0.162,0.041l-0.161,0.042l-0.159,0.044l-0.157,0.045l-0.156,0.046l-0.153,0.048l-0.153,0.049l-0.15,0.05l-0.149,0.052l-0.148,0.053l-0.145,0.054l-0.145,0.055l-0.142,0.056l-0.142,0.058l-0.14,0.059l-0.138,0.06l-0.137,0.061l-0.136,0.062l-0.134,0.064l-0.133,0.065l-0.132,0.065l-0.13,0.067l-0.129,0.068l-0.128,0.07l-0.126,0.07l-0.126,0.071l-0.124,0.073l-0.123,0.073l-0.122,0.075l-0.12,0.075l-0.12,0.077l-0.118,0.078l-0.118,0.079l-0.116,0.08l-0.115,0.081l-0.114,0.082l-0.113,0.083l-2.169,1.627l-2.459,-0.989l-0.106,-0.042l-0.16,-0.061l-0.208,-0.079l-0.255,-0.094l-0.304,-0.11l-0.162,-0.057l-0.177,-0.061l-0.186,-0.065l-0.197,-0.066l-0.206,-0.07l-0.216,-0.071l-0.225,-0.073l-0.235,-0.075l-0.243,-0.076l-0.251,-0.078l-0.26,-0.079l-0.268,-0.079l-0.275,-0.081l-0.284,-0.081l-0.29,-0.082l-0.298,-0.081l-0.304,-0.082l-0.311,-0.082l-0.317,-0.081l-0.323,-0.08l-0.329,-0.08l-0.335,-0.079l-0.339,-0.077l-0.345,-0.077l-0.35,-0.075l-0.358,-0.074l-0.174,-0.035l-0.18,-0.035l-0.181,-0.035l-0.181,-0.034l-0.183,-0.034l-0.183,-0.033l-0.184,-0.033l-0.186,-0.032l-0.185,-0.031l-0.187,-0.031l-0.188,-0.03l-0.188,-0.029l-0.188,-0.028l-0.19,-0.028l-0.19,-0.027l-0.19,-0.026l-0.191,-0.025l-0.192,-0.025l-0.192,-0.023l-0.192,-0.023l-0.193,-0.022l-0.193,-0.021l-0.194,-0.02l-0.194,-0.019l-0.194,-0.018l-0.194,-0.017l-0.194,-0.016l-0.195,-0.015l-0.194,-0.013l-0.195,-0.013l-0.195,-0.012l-0.195,-0.01l-0.195,-0.01l-0.194,-0.008l-0.195,-0.007l-0.194,-0.006l-0.195,-0.005l-0.194,-0.003l-0.194,-0.002l-0.193,-0.001l-0.193,0l-0.193,0.002l-0.193,0.003l-0.192,0.004l-0.192,0.005l-0.191,0.007l-0.19,0.008l-0.191,0.01l-0.189,0.011l-0.189,0.013l-0.188,0.013l-0.188,0.016l-0.186,0.016l-0.186,0.018l-0.186,0.02l-0.184,0.021l-0.184,0.022l-0.182,0.024l-0.182,0.026l-0.181,0.027l-0.18,0.028l-0.178,0.03l-0.178,0.032l-0.177,0.033l-0.175,0.034l-0.175,0.036l-0.173,0.038l-0.172,0.039l-0.171,0.041l-0.169,0.042l-0.169,0.044l-0.167,0.045l-0.165,0.047l-0.165,0.048l-0.163,0.05l-0.162,0.052l-0.16,0.053l-0.159,0.055l-0.158,0.056l-0.156,0.058l-0.154,0.059l-0.154,0.062l-0.151,0.062l-0.151,0.065l-0.149,0.065l-0.147,0.068l-0.146,0.069l-0.144,0.071l-0.143,0.072l-0.149,0.078l-0.063,0.034l-0.07,0.038l-0.07,0.038l-0.069,0.039l-0.068,0.04l-0.069,0.039l-0.068,0.041l-0.068,0.04l-0.067,0.041l-0.067,0.042l-0.066,0.041l-0.067,0.043l-0.065,0.043l-0.066,0.043l-0.065,0.043l-0.065,0.045l-0.064,0.044l-0.065,0.045l-0.063,0.046l-0.064,0.045l-0.063,0.047l-0.063,0.047l-0.062,0.047l-0.062,0.048l-0.062,0.048l-0.061,0.049l-0.062,0.049l-0.06,0.05l-0.061,0.05l-0.06,0.051l-0.06,0.052l-0.059,0.051l-0.059,0.053l-0.059,0.053l-0.059,0.053l-0.058,0.054l-0.058,0.054l-0.057,0.055l-0.058,0.056l-0.057,0.056l-0.056,0.057l-0.057,0.057l-0.056,0.058l-0.056,0.059l-0.055,0.059l-0.055,0.06l-0.055,0.06l-0.055,0.061l-0.054,0.061l-0.054,0.063l-0.054,0.062l-0.053,0.064l-0.053,0.064l-0.053,0.065l-0.053,0.066l-0.052,0.066l-0.052,0.067l-0.052,0.067l-0.051,0.069l-0.051,0.069l-0.051,0.069l-0.05,0.071l-0.051,0.071l-0.05,0.072l-0.049,0.073l-0.05,0.073l-0.049,0.075l-0.048,0.075l-0.049,0.076l-0.048,0.076l-0.048,0.078l-0.047,0.078l-0.047,0.08l-0.047,0.08l-0.047,0.081l-0.046,0.081l-0.046,0.083l-0.046,0.083l-0.045,0.085l-0.045,0.085l-0.045,0.086l-0.044,0.087l-0.044,0.088l-0.043,0.089l-0.044,0.09l-0.043,0.091l-0.042,0.092l-0.042,0.093l-0.042,0.093l-0.041,0.095l-0.042,0.096l-0.04,0.096l-0.04,0.098l-0.04,0.099l-0.04,0.099l-0.039,0.101l-0.039,0.102l-0.038,0.103l-0.038,0.104l-0.037,0.105l-0.037,0.106l-0.037,0.107l-0.036,0.108l-0.036,0.109l-0.035,0.11l-0.035,0.112l-0.034,0.112l-0.034,0.114l-0.033,0.114l-0.033,0.116l-0.032,0.117l-0.032,0.118l-0.032,0.119l-0.031,0.121l-0.03,0.121l-0.03,0.123l-0.029,0.124l-0.029,0.125l-0.028,0.126l-0.028,0.127l-0.027,0.129l-0.027,0.129l-0.026,0.131l-0.025,0.132l-0.025,0.134l-0.024,0.134l-0.024,0.136l-0.023,0.137l-0.023,0.138l-0.022,0.139l-0.021,0.141l-0.021,0.141l-0.02,0.143l-0.019,0.145l-0.019,0.145l-0.018,0.147l-0.017,0.148l-0.017,0.149l-0.016,0.15l-0.016,0.152l-0.015,0.153l-0.014,0.154l-0.013,0.156l-0.013,0.157l-0.012,0.158l-0.011,0.159l-0.011,0.161l-0.009,0.162l-0.01,0.163l-0.008,0.164l-0.008,0.166l-0.006,0.167l-0.007,0.169l-0.005,0.169l-0.005,0.171l-0.003,0.173l-0.003,0.173l-0.003,0.175l-0.001,0.176l-0.001,0.178l0,0.179l0.001,0.18l0.002,0.181l0.002,0.183l0.004,0.184l0.004,0.186l0.005,0.187l0.006,0.188l0.007,0.189l0.007,0.191l0.009,0.192l0.008,0.181l0.008,0.135l0.011,0.146l0.014,0.169l0.018,0.19l0.021,0.209l0.026,0.228l0.029,0.245l0.033,0.261l0.037,0.277l0.04,0.292l0.044,0.306l0.048,0.32l0.051,0.333l0.055,0.345l0.058,0.358l0.062,0.37l0.065,0.381l0.068,0.392l0.072,0.403l0.076,0.413l0.078,0.423l0.082,0.433l0.085,0.442l0.089,0.45l0.091,0.459l0.095,0.467l0.098,0.475l0.101,0.482l0.104,0.489l0.107,0.496l0.11,0.502l0.113,0.509l0.116,0.514l0.119,0.519l0.122,0.525l0.124,0.529l0.128,0.534l0.13,0.537l0.134,0.542l0.136,0.545l0.138,0.548l0.142,0.55l0.144,0.554l0.146,0.555l0.15,0.557l0.152,0.558l0.154,0.559l0.157,0.561l0.159,0.56l0.162,0.561l0.164,0.561l0.167,0.559l0.169,0.559l0.171,0.558l0.173,0.556l0.176,0.554l0.178,0.552l0.181,0.552l0.089,0.271l0.092,0.273l0.091,0.272l0.093,0.271l0.093,0.27l0.093,0.27l0.094,0.268l0.094,0.267l0.094,0.266l0.096,0.265l0.095,0.264l0.096,0.262l0.097,0.262l0.097,0.26l0.097,0.258l0.098,0.257l0.098,0.256l0.099,0.255l0.099,0.252l0.099,0.252l0.1,0.249l0.1,0.248l0.101,0.246l0.1,0.244l0.102,0.243l0.101,0.241l0.102,0.238l0.102,0.237l0.103,0.235l0.102,0.233l0.103,0.231l0.103,0.228l0.104,0.226l0.104,0.224l0.103,0.222l0.104,0.22l0.105,0.217l0.104,0.214l0.105,0.212l0.104,0.21l0.105,0.207l0.105,0.204l0.105,0.201l0.105,0.199l0.105,0.196l0.105,0.193l0.105,0.19l0.105,0.187l0.104,0.184l0.105,0.181l0.104,0.178l0.105,0.175l0.104,0.171l0.103,0.168l0.104,0.165l0.103,0.161l0.103,0.158l0.102,0.154l0.102,0.15l0.101,0.147l0.101,0.143l0.1,0.14l0.099,0.135l0.098,0.132l0.098,0.128l0.097,0.124l0.095,0.119l0.095,0.116l0.093,0.111l0.093,0.108l0.09,0.103l0.09,0.098l0.087,0.095l0.087,0.09l0.084,0.086l0.082,0.081l0.081,0.077l0.078,0.073l0.083,0.074l0.03,0.027l0.037,0.031l0.036,0.03l0.035,0.029l0.034,0.028l0.034,0.027l0.033,0.026l0.033,0.025l0.031,0.024l0.031,0.023l0.03,0.021l0.03,0.021l0.028,0.02l0.028,0.019l0.026,0.017l0.026,0.017l0.025,0.016l0.024,0.015l0.024,0.013l0.022,0.013l0.021,0.013l0.021,0.011l0.019,0.01l0.019,0.01l0.017,0.009l0.017,0.008l0.015,0.007l0.015,0.007l0.013,0.006l0.013,0.005l0.012,0.005l0.01,0.004l0.009,0.003l0.002,0l0.01,-0.005l0.011,-0.005l0.013,-0.006l0.014,-0.007l0.015,-0.007l0.016,-0.009l0.018,-0.009l0.018,-0.01l0.02,-0.012l0.021,-0.012l0.022,-0.014l0.023,-0.014l0.025,-0.016l0.025,-0.017l0.027,-0.018l0.027,-0.02l0.03,-0.021l0.03,-0.022l0.031,-0.023l0.032,-0.025l0.033,-0.027l0.035,-0.028l0.035,-0.029l0.036,-0.031l0.038,-0.033l0.038,-0.034l0.039,-0.035l0.041,-0.037l0.041,-0.039l0.042,-0.041l0.043,-0.042l0.043,-0.043l0.045,-0.046l0.046,-0.047l0.046,-0.049l0.047,-0.051l0.047,-0.052l0.049,-0.054l0.049,-0.056l0.05,-0.057l0.051,-0.06l0.059,-0.07l0.438,-0.525l0.444,-0.529l0.442,-0.521l0.437,-0.514l0.434,-0.505l0.428,-0.497l0.422,-0.486l0.415,-0.477l0.407,-0.465l0.4,-0.453l0.39,-0.44l0.38,-0.428l0.37,-0.414l0.358,-0.399l0.345,-0.384l0.333,-0.367l0.319,-0.352l0.305,-0.335l0.56,-0.611l0.494,-0.536l0.419,-0.451l0.339,-0.363l0.252,-0.269l2.81,-2.976l3.255,2.139l0.068,0.043ZM63.87,3.865l-0.438,0.21l0.177,-0.075l0.172,-0.067l0.169,-0.062l0.125,-0.043l-0.205,0.037Z" style="fill:#000;"/></g><path d="M99.59,67.294c-12.164,2.509 -13,-1.609 -13,-1.609c12.843,-19.058 18.212,-43.248 13.579,-49.169c-12.64,-16.15 -34.521,-8.512 -34.886,-8.313l-0.117,0.021c-2.403,-0.499 -5.093,-0.796 -8.116,-0.846c-5.504,-0.09 -9.679,1.443 -12.847,3.846c0,0 -39.033,-16.08 -37.217,20.223c0.386,7.723 11.069,58.438 23.812,43.12c4.658,-5.602 9.158,-10.338 9.158,-10.338c2.235,1.485 4.911,2.243 7.716,1.97l0.218,-0.185c-0.068,0.696 -0.037,1.376 0.087,2.181c-3.283,3.668 -2.318,4.312 -8.881,5.663c-6.64,1.368 -2.739,3.805 -0.192,4.441c3.088,0.773 10.231,1.866 15.057,-4.89l-0.192,0.771c1.286,1.03 2.189,6.701 2.038,11.842c-0.152,5.14 -0.253,8.67 0.761,11.427c1.013,2.756 2.023,8.959 10.65,7.111c7.209,-1.545 10.944,-5.548 11.464,-12.226c0.368,-4.747 1.203,-4.045 1.256,-8.289l0.669,-2.01c0.772,-6.435 0.123,-8.511 4.564,-7.545l1.079,0.095c3.269,0.148 7.547,-0.526 10.057,-1.693c5.407,-2.509 8.614,-6.699 3.283,-5.598l0,0Z" style="fill:#336791;fill-rule:nonzero;"/><path d="M54.484,70.983c-0.335,11.974 0.084,24.031 1.255,26.962c1.173,2.93 3.682,8.63 12.309,6.782c7.208,-1.546 9.83,-4.536 10.968,-11.136c0.838,-4.857 2.454,-18.344 2.662,-21.107" style="fill:none;stroke-width:3.01px;stroke:#fff;"/><path d="M44.143,10.956c0,0 -39.059,-15.964 -37.244,20.34c0.387,7.723 11.071,58.439 23.813,43.12c4.657,-5.602 8.868,-9.996 8.868,-9.996" style="fill:none;stroke-width:3.01px;stroke:#fff;"/><path d="M65.24,8.042c-1.352,0.424 21.728,-8.436 34.844,8.323c4.633,5.921 -0.736,30.112 -13.579,49.169" style="fill:none;stroke-width:3.01px;stroke:#fff;"/><path d="M86.505,65.534c0,0 0.836,4.12 13.001,1.609c5.33,-1.1 2.122,3.089 -3.283,5.6c-4.437,2.059 -14.382,2.586 -14.545,-0.259c-0.418,-7.34 5.235,-5.11 4.827,-6.95c-0.369,-1.656 -2.897,-3.282 -4.569,-7.336c-1.46,-3.538 -20.022,-30.675 5.147,-26.644c0.922,-0.191 -6.564,-23.941 -30.119,-24.327c-23.55,-0.387 -22.777,28.961 -22.777,28.961" style="fill:none;stroke-width:3.01px;stroke-linejoin:bevel;stroke:#fff;"/><path d="M47.891,68.045c-3.283,3.667 -2.318,4.311 -8.88,5.663c-6.641,1.368 -2.739,3.804 -0.193,4.441c3.087,0.772 10.231,1.866 15.057,-4.892c1.47,-2.058 -0.009,-5.341 -2.028,-6.178c-0.975,-0.404 -2.279,-0.91 -3.956,0.966l0,0Z" style="fill:none;stroke-width:3.01px;stroke:#fff;"/><path d="M47.676,67.981c-0.331,-2.157 0.709,-4.723 1.822,-7.725c1.674,-4.504 5.536,-9.009 2.447,-23.296c-2.303,-10.647 -17.749,-2.216 -17.758,-0.772c-0.01,1.443 0.698,7.317 -0.258,14.158c-1.249,8.926 5.679,16.475 13.657,15.703" style="fill:none;stroke-width:3.01px;stroke:#fff;"/><path d="M44.001,35.971c-0.07,0.493 0.903,1.809 2.17,1.985c1.266,0.176 2.349,-0.852 2.418,-1.345c0.069,-0.493 -0.902,-1.036 -2.171,-1.212c-1.266,-0.177 -2.35,0.08 -2.417,0.572l0,0Z" style="fill:#fff;fill-rule:nonzero;stroke-width:1px;stroke-linecap:butt;stroke-linejoin:miter;stroke:#fff;"/><path d="M82.553,34.966c0.069,0.493 -0.903,1.809 -2.171,1.984c-1.266,0.177 -2.35,-0.851 -2.419,-1.344c-0.067,-0.493 0.904,-1.036 2.171,-1.213c1.267,-0.176 2.35,0.081 2.419,0.573l0,0Z" style="fill:#fff;fill-rule:nonzero;stroke-width:0.5px;stroke-linecap:butt;stroke-linejoin:miter;stroke:#fff;"/><path d="M87.083,31.554c0.209,3.867 -0.833,6.502 -0.964,10.619c-0.194,5.984 2.853,12.834 -1.739,19.693" style="fill:none;stroke-width:3.01px;stroke:#fff;"/></g></svg>